solid ASCII
  facet normal 0.000000e+00 0.000000e+00 1.000000e+00
    outer loop
      vertex   4.750000e+00 -2.235174e-07 9.900000e+00
      vertex   6.850000e+00 -2.235174e-07 9.900000e+00
      vertex   4.750000e+00 7.500000e+00 9.900000e+00
    endloop
  endfacet
  facet normal -0.000000e+00 0.000000e+00 1.000000e+00
    outer loop
      vertex   4.750000e+00 7.500000e+00 9.900000e+00
      vertex   6.850000e+00 -2.235174e-07 9.900000e+00
      vertex   6.850000e+00 7.500000e+00 9.900000e+00
    endloop
  endfacet
  facet normal 0.000000e+00 0.000000e+00 -1.000000e+00
    outer loop
      vertex   1.160000e+01 0.000000e+00 -3.750000e+00
      vertex   1.460000e+01 0.000000e+00 -3.750000e+00
      vertex   1.660000e+01 -2.000000e+00 -3.750000e+00
    endloop
  endfacet
  facet normal 0.000000e+00 0.000000e+00 -1.000000e+00
    outer loop
      vertex   1.660000e+01 -2.000000e+00 -3.750000e+00
      vertex   1.460000e+01 0.000000e+00 -3.750000e+00
      vertex   1.480906e+01 -1.095621e-02 -3.750000e+00
    endloop
  endfacet
  facet normal 0.000000e+00 0.000000e+00 -1.000000e+00
    outer loop
      vertex   1.660000e+01 -2.000000e+00 -3.750000e+00
      vertex   1.480906e+01 -1.095621e-02 -3.750000e+00
      vertex   1.501582e+01 -4.370480e-02 -3.750000e+00
    endloop
  endfacet
  facet normal 0.000000e+00 0.000000e+00 -1.000000e+00
    outer loop
      vertex   1.501582e+01 -4.370480e-02 -3.750000e+00
      vertex   1.521803e+01 -9.788697e-02 -3.750000e+00
      vertex   1.660000e+01 -2.000000e+00 -3.750000e+00
    endloop
  endfacet
  facet normal 0.000000e+00 0.000000e+00 -1.000000e+00
    outer loop
      vertex   1.660000e+01 -2.000000e+00 -3.750000e+00
      vertex   1.521803e+01 -9.788697e-02 -3.750000e+00
      vertex   1.541347e+01 -1.729091e-01 -3.750000e+00
    endloop
  endfacet
  facet normal 0.000000e+00 0.000000e+00 -1.000000e+00
    outer loop
      vertex   1.660000e+01 -2.000000e+00 -3.750000e+00
      vertex   1.541347e+01 -1.729091e-01 -3.750000e+00
      vertex   1.560000e+01 -2.679492e-01 -3.750000e+00
    endloop
  endfacet
  facet normal 0.000000e+00 0.000000e+00 -1.000000e+00
    outer loop
      vertex   1.560000e+01 -2.679492e-01 -3.750000e+00
      vertex   1.577557e+01 -3.819660e-01 -3.750000e+00
      vertex   1.660000e+01 -2.000000e+00 -3.750000e+00
    endloop
  endfacet
  facet normal 0.000000e+00 0.000000e+00 -1.000000e+00
    outer loop
      vertex   1.660000e+01 -2.000000e+00 -3.750000e+00
      vertex   1.577557e+01 -3.819660e-01 -3.750000e+00
      vertex   1.593826e+01 -5.137103e-01 -3.750000e+00
    endloop
  endfacet
  facet normal 0.000000e+00 0.000000e+00 -1.000000e+00
    outer loop
      vertex   1.660000e+01 -2.000000e+00 -3.750000e+00
      vertex   1.593826e+01 -5.137103e-01 -3.750000e+00
      vertex   1.608629e+01 -6.617388e-01 -3.750000e+00
    endloop
  endfacet
  facet normal 0.000000e+00 0.000000e+00 -1.000000e+00
    outer loop
      vertex   1.608629e+01 -6.617388e-01 -3.750000e+00
      vertex   1.621803e+01 -8.244295e-01 -3.750000e+00
      vertex   1.660000e+01 -2.000000e+00 -3.750000e+00
    endloop
  endfacet
  facet normal 0.000000e+00 0.000000e+00 -1.000000e+00
    outer loop
      vertex   1.660000e+01 -2.000000e+00 -3.750000e+00
      vertex   1.621803e+01 -8.244295e-01 -3.750000e+00
      vertex   1.633205e+01 -1.000000e+00 -3.750000e+00
    endloop
  endfacet
  facet normal 0.000000e+00 0.000000e+00 -1.000000e+00
    outer loop
      vertex   1.660000e+01 -2.000000e+00 -3.750000e+00
      vertex   1.633205e+01 -1.000000e+00 -3.750000e+00
      vertex   1.642709e+01 -1.186527e+00 -3.750000e+00
    endloop
  endfacet
  facet normal 0.000000e+00 0.000000e+00 -1.000000e+00
    outer loop
      vertex   1.642709e+01 -1.186527e+00 -3.750000e+00
      vertex   1.650211e+01 -1.381966e+00 -3.750000e+00
      vertex   1.660000e+01 -2.000000e+00 -3.750000e+00
    endloop
  endfacet
  facet normal 0.000000e+00 0.000000e+00 -1.000000e+00
    outer loop
      vertex   1.660000e+01 -2.000000e+00 -3.750000e+00
      vertex   1.650211e+01 -1.381966e+00 -3.750000e+00
      vertex   1.655630e+01 -1.584177e+00 -3.750000e+00
    endloop
  endfacet
  facet normal 0.000000e+00 0.000000e+00 -1.000000e+00
    outer loop
      vertex   1.660000e+01 -2.000000e+00 -3.750000e+00
      vertex   1.655630e+01 -1.584177e+00 -3.750000e+00
      vertex   1.658904e+01 -1.790943e+00 -3.750000e+00
    endloop
  endfacet
  facet normal 0.000000e+00 0.000000e+00 -1.000000e+00
    outer loop
      vertex   1.660000e+01 -2.000000e+00 -3.750000e+00
      vertex   8.600000e+00 -2.000000e+00 -3.750000e+00
      vertex   1.160000e+01 0.000000e+00 -3.750000e+00
    endloop
  endfacet
  facet normal -0.000000e+00 0.000000e+00 -1.000000e+00
    outer loop
      vertex   1.160000e+01 0.000000e+00 -3.750000e+00
      vertex   8.600000e+00 -2.000000e+00 -3.750000e+00
      vertex   1.000000e+01 1.000000e+01 -3.750000e+00
    endloop
  endfacet
  facet normal 0.000000e+00 0.000000e+00 -1.000000e+00
    outer loop
      vertex   1.000000e+01 1.000000e+01 -3.750000e+00
      vertex   8.600000e+00 -2.000000e+00 -3.750000e+00
      vertex   6.850000e+00 -2.235174e-07 -3.750000e+00
    endloop
  endfacet
  facet normal 0.000000e+00 0.000000e+00 -1.000000e+00
    outer loop
      vertex   1.000000e+01 1.000000e+01 -3.750000e+00
      vertex   6.850000e+00 -2.235174e-07 -3.750000e+00
      vertex   4.750000e+00 -2.235174e-07 -3.750000e+00
    endloop
  endfacet
  facet normal 0.000000e+00 0.000000e+00 -1.000000e+00
    outer loop
      vertex   8.600000e+00 -3.775000e+01 -3.750000e+00
      vertex   6.850000e+00 -2.530000e+01 -3.750000e+00
      vertex   8.600000e+00 -2.000000e+00 -3.750000e+00
    endloop
  endfacet
  facet normal 0.000000e+00 0.000000e+00 -1.000000e+00
    outer loop
      vertex   8.600000e+00 -2.000000e+00 -3.750000e+00
      vertex   6.850000e+00 -2.530000e+01 -3.750000e+00
      vertex   6.850000e+00 -1.050000e+01 -3.750000e+00
    endloop
  endfacet
  facet normal -0.000000e+00 0.000000e+00 -1.000000e+00
    outer loop
      vertex   8.600000e+00 -2.000000e+00 -3.750000e+00
      vertex   6.850000e+00 -1.050000e+01 -3.750000e+00
      vertex   6.850000e+00 -2.235174e-07 -3.750000e+00
    endloop
  endfacet
  facet normal 0.000000e+00 0.000000e+00 -1.000000e+00
    outer loop
      vertex   6.850000e+00 -2.530000e+01 -3.750000e+00
      vertex   8.600000e+00 -3.775000e+01 -3.750000e+00
      vertex   6.850000e+00 -3.540000e+01 -3.750000e+00
    endloop
  endfacet
  facet normal 0.000000e+00 -0.000000e+00 -1.000000e+00
    outer loop
      vertex   6.850000e+00 -3.540000e+01 -3.750000e+00
      vertex   8.600000e+00 -3.775000e+01 -3.750000e+00
      vertex   3.000000e+00 -3.775000e+01 -3.750000e+00
    endloop
  endfacet
  facet normal -0.000000e+00 0.000000e+00 -1.000000e+00
    outer loop
      vertex   6.850000e+00 -3.540000e+01 -3.750000e+00
      vertex   3.000000e+00 -3.775000e+01 -3.750000e+00
      vertex   4.750000e+00 -3.540000e+01 -3.750000e+00
    endloop
  endfacet
  facet normal -0.000000e+00 0.000000e+00 -1.000000e+00
    outer loop
      vertex   4.750000e+00 -3.540000e+01 -3.750000e+00
      vertex   3.000000e+00 -3.775000e+01 -3.750000e+00
      vertex   4.750000e+00 -2.530000e+01 -3.750000e+00
    endloop
  endfacet
  facet normal -0.000000e+00 0.000000e+00 -1.000000e+00
    outer loop
      vertex   4.750000e+00 -2.530000e+01 -3.750000e+00
      vertex   3.000000e+00 -3.775000e+01 -3.750000e+00
      vertex   3.000000e+00 0.000000e+00 -3.750000e+00
    endloop
  endfacet
  facet normal 0.000000e+00 0.000000e+00 -1.000000e+00
    outer loop
      vertex   4.750000e+00 -2.530000e+01 -3.750000e+00
      vertex   3.000000e+00 0.000000e+00 -3.750000e+00
      vertex   4.750000e+00 -1.050000e+01 -3.750000e+00
    endloop
  endfacet
  facet normal 0.000000e+00 0.000000e+00 -1.000000e+00
    outer loop
      vertex   4.750000e+00 -1.050000e+01 -3.750000e+00
      vertex   3.000000e+00 0.000000e+00 -3.750000e+00
      vertex   4.750000e+00 -2.235174e-07 -3.750000e+00
    endloop
  endfacet
  facet normal 0.000000e+00 0.000000e+00 -1.000000e+00
    outer loop
      vertex   4.750000e+00 -2.235174e-07 -3.750000e+00
      vertex   3.000000e+00 0.000000e+00 -3.750000e+00
      vertex   0.000000e+00 1.000000e+01 -3.750000e+00
    endloop
  endfacet
  facet normal 0.000000e+00 0.000000e+00 -1.000000e+00
    outer loop
      vertex   4.750000e+00 -2.235174e-07 -3.750000e+00
      vertex   0.000000e+00 1.000000e+01 -3.750000e+00
      vertex   1.000000e+01 1.000000e+01 -3.750000e+00
    endloop
  endfacet
  facet normal 0.000000e+00 0.000000e+00 -1.000000e+00
    outer loop
      vertex   3.000000e+00 0.000000e+00 -3.750000e+00
      vertex   0.000000e+00 5.000000e+00 -3.750000e+00
      vertex   0.000000e+00 1.000000e+01 -3.750000e+00
    endloop
  endfacet
  facet normal 0.000000e+00 0.000000e+00 -1.000000e+00
    outer loop
      vertex   4.750000e+00 -1.050000e+01 -3.750000e+00
      vertex   6.850000e+00 -1.050000e+01 -3.750000e+00
      vertex   4.750000e+00 -2.530000e+01 -3.750000e+00
    endloop
  endfacet
  facet normal 0.000000e+00 0.000000e+00 -1.000000e+00
    outer loop
      vertex   4.750000e+00 -2.530000e+01 -3.750000e+00
      vertex   6.850000e+00 -1.050000e+01 -3.750000e+00
      vertex   6.850000e+00 -2.530000e+01 -3.750000e+00
    endloop
  endfacet
  facet normal -1.000000e+00 -0.000000e+00 0.000000e+00
    outer loop
      vertex   6.850000e+00 0.000000e+00 0.000000e+00
      vertex   6.850000e+00 -2.235174e-07 -3.750000e+00
      vertex   6.850000e+00 -1.050000e+01 0.000000e+00
    endloop
  endfacet
  facet normal -1.000000e+00 0.000000e+00 0.000000e+00
    outer loop
      vertex   6.850000e+00 -1.050000e+01 0.000000e+00
      vertex   6.850000e+00 -2.235174e-07 -3.750000e+00
      vertex   6.850000e+00 -1.050000e+01 -3.750000e+00
    endloop
  endfacet
  facet normal 1.000000e+00 0.000000e+00 0.000000e+00
    outer loop
      vertex   4.750000e+00 7.500000e+00 1.600000e+01
      vertex   4.750000e+00 0.000000e+00 1.600000e+01
      vertex   4.750000e+00 7.500000e+00 9.900000e+00
    endloop
  endfacet
  facet normal 1.000000e+00 0.000000e+00 0.000000e+00
    outer loop
      vertex   4.750000e+00 7.500000e+00 9.900000e+00
      vertex   4.750000e+00 0.000000e+00 1.600000e+01
      vertex   4.750000e+00 -2.235174e-07 9.900000e+00
    endloop
  endfacet
  facet normal 1.000000e+00 0.000000e+00 2.368476e-16
    outer loop
      vertex   4.750000e+00 0.000000e+00 0.000000e+00
      vertex   4.750000e+00 -1.050000e+01 0.000000e+00
      vertex   4.750000e+00 -2.235174e-07 -3.750000e+00
    endloop
  endfacet
  facet normal 1.000000e+00 0.000000e+00 2.368476e-16
    outer loop
      vertex   4.750000e+00 -2.235174e-07 -3.750000e+00
      vertex   4.750000e+00 -1.050000e+01 0.000000e+00
      vertex   4.750000e+00 -1.050000e+01 -3.750000e+00
    endloop
  endfacet
  facet normal 5.233596e-02 9.986295e-01 -3.114330e-17
    outer loop
      vertex   1.480906e+01 -1.095621e-02 1.850000e+01
      vertex   1.480906e+01 -1.095621e-02 1.405000e+01
      vertex   1.460000e+01 0.000000e+00 1.850000e+01
    endloop
  endfacet
  facet normal 5.233596e-02 9.986295e-01 -2.000175e-19
    outer loop
      vertex   1.460000e+01 0.000000e+00 1.850000e+01
      vertex   1.480906e+01 -1.095621e-02 1.405000e+01
      vertex   1.480906e+01 -1.095621e-02 9.600000e+00
    endloop
  endfacet
  facet normal 5.233596e-02 9.986295e-01 -2.000175e-19
    outer loop
      vertex   1.460000e+01 0.000000e+00 1.850000e+01
      vertex   1.480906e+01 -1.095621e-02 9.600000e+00
      vertex   1.480906e+01 -1.095621e-02 5.150000e+00
    endloop
  endfacet
  facet normal 1.564345e-01 9.876883e-01 -0.000000e+00
    outer loop
      vertex   1.480906e+01 -1.095621e-02 5.150000e+00
      vertex   1.480906e+01 -1.095621e-02 9.600000e+00
      vertex   1.501582e+01 -4.370480e-02 5.150000e+00
    endloop
  endfacet
  facet normal 1.564345e-01 9.876883e-01 4.337632e-19
    outer loop
      vertex   1.480906e+01 -1.095621e-02 5.150000e+00
      vertex   1.501582e+01 -4.370480e-02 5.150000e+00
      vertex   1.501582e+01 -4.370480e-02 7.000000e-01
    endloop
  endfacet
  facet normal 2.588190e-01 9.659258e-01 -0.000000e+00
    outer loop
      vertex   1.501582e+01 -4.370480e-02 7.000000e-01
      vertex   1.501582e+01 -4.370480e-02 5.150000e+00
      vertex   1.521803e+01 -9.788697e-02 7.000000e-01
    endloop
  endfacet
  facet normal 2.588190e-01 9.659258e-01 6.012795e-17
    outer loop
      vertex   1.501582e+01 -4.370480e-02 7.000000e-01
      vertex   1.521803e+01 -9.788697e-02 7.000000e-01
      vertex   1.521803e+01 -9.788697e-02 -3.750000e+00
    endloop
  endfacet
  facet normal 3.583679e-01 9.335804e-01 5.822935e-17
    outer loop
      vertex   1.521803e+01 -9.788697e-02 -3.750000e+00
      vertex   1.521803e+01 -9.788697e-02 7.000000e-01
      vertex   1.541347e+01 -1.729091e-01 -3.750000e+00
    endloop
  endfacet
  facet normal 3.583679e-01 9.335804e-01 4.658348e-17
    outer loop
      vertex   1.541347e+01 -1.729091e-01 -3.750000e+00
      vertex   1.521803e+01 -9.788697e-02 7.000000e-01
      vertex   1.541347e+01 -1.729091e-01 7.000000e-01
    endloop
  endfacet
  facet normal 4.539905e-01 8.910065e-01 4.445914e-17
    outer loop
      vertex   1.541347e+01 -1.729091e-01 -3.750000e+00
      vertex   1.541347e+01 -1.729091e-01 7.000000e-01
      vertex   1.560000e+01 -2.679492e-01 -3.750000e+00
    endloop
  endfacet
  facet normal 4.539905e-01 8.910065e-01 1.333774e-16
    outer loop
      vertex   1.560000e+01 -2.679492e-01 -3.750000e+00
      vertex   1.541347e+01 -1.729091e-01 7.000000e-01
      vertex   1.560000e+01 -2.679492e-01 7.000000e-01
    endloop
  endfacet
  facet normal 5.446390e-01 8.386706e-01 1.255431e-16
    outer loop
      vertex   1.560000e+01 -2.679492e-01 -3.750000e+00
      vertex   1.560000e+01 -2.679492e-01 7.000000e-01
      vertex   1.577557e+01 -3.819660e-01 -3.750000e+00
    endloop
  endfacet
  facet normal 5.446390e-01 8.386706e-01 -2.092385e-17
    outer loop
      vertex   1.577557e+01 -3.819660e-01 -3.750000e+00
      vertex   1.560000e+01 -2.679492e-01 7.000000e-01
      vertex   1.577557e+01 -3.819660e-01 7.000000e-01
    endloop
  endfacet
  facet normal 6.293204e-01 7.771460e-01 -1.938888e-17
    outer loop
      vertex   1.577557e+01 -3.819660e-01 -3.750000e+00
      vertex   1.577557e+01 -3.819660e-01 7.000000e-01
      vertex   1.593826e+01 -5.137103e-01 -3.750000e+00
    endloop
  endfacet
  facet normal 6.293204e-01 7.771460e-01 1.938888e-17
    outer loop
      vertex   1.593826e+01 -5.137103e-01 -3.750000e+00
      vertex   1.577557e+01 -3.819660e-01 7.000000e-01
      vertex   1.593826e+01 -5.137103e-01 7.000000e-01
    endloop
  endfacet
  facet normal 7.071068e-01 7.071068e-01 1.764149e-17
    outer loop
      vertex   1.593826e+01 -5.137103e-01 -3.750000e+00
      vertex   1.593826e+01 -5.137103e-01 7.000000e-01
      vertex   1.608629e+01 -6.617388e-01 -3.750000e+00
    endloop
  endfacet
  facet normal 7.071068e-01 7.071068e-01 1.764149e-17
    outer loop
      vertex   1.608629e+01 -6.617388e-01 -3.750000e+00
      vertex   1.593826e+01 -5.137103e-01 7.000000e-01
      vertex   1.608629e+01 -6.617388e-01 7.000000e-01
    endloop
  endfacet
  facet normal 7.771460e-01 6.293204e-01 1.570081e-17
    outer loop
      vertex   1.608629e+01 -6.617388e-01 -3.750000e+00
      vertex   1.608629e+01 -6.617388e-01 7.000000e-01
      vertex   1.621803e+01 -8.244295e-01 -3.750000e+00
    endloop
  endfacet
  facet normal 7.771460e-01 6.293204e-01 -6.280323e-17
    outer loop
      vertex   1.621803e+01 -8.244295e-01 -3.750000e+00
      vertex   1.608629e+01 -6.617388e-01 7.000000e-01
      vertex   1.621803e+01 -8.244295e-01 7.000000e-01
    endloop
  endfacet
  facet normal 8.386706e-01 5.446390e-01 -5.435243e-17
    outer loop
      vertex   1.621803e+01 -8.244295e-01 -3.750000e+00
      vertex   1.621803e+01 -8.244295e-01 7.000000e-01
      vertex   1.633205e+01 -1.000000e+00 -3.750000e+00
    endloop
  endfacet
  facet normal 8.386706e-01 5.446390e-01 -0.000000e+00
    outer loop
      vertex   1.633205e+01 -1.000000e+00 -3.750000e+00
      vertex   1.621803e+01 -8.244295e-01 7.000000e-01
      vertex   1.633205e+01 -1.000000e+00 7.000000e-01
    endloop
  endfacet
  facet normal 8.910065e-01 4.539905e-01 -0.000000e+00
    outer loop
      vertex   1.633205e+01 -1.000000e+00 -3.750000e+00
      vertex   1.633205e+01 -1.000000e+00 7.000000e-01
      vertex   1.642709e+01 -1.186527e+00 -3.750000e+00
    endloop
  endfacet
  facet normal 8.910065e-01 4.539905e-01 -4.530613e-17
    outer loop
      vertex   1.642709e+01 -1.186527e+00 -3.750000e+00
      vertex   1.633205e+01 -1.000000e+00 7.000000e-01
      vertex   1.642709e+01 -1.186527e+00 7.000000e-01
    endloop
  endfacet
  facet normal 9.335804e-01 3.583679e-01 -3.576345e-17
    outer loop
      vertex   1.642709e+01 -1.186527e+00 -3.750000e+00
      vertex   1.642709e+01 -1.186527e+00 7.000000e-01
      vertex   1.650211e+01 -1.381966e+00 -3.750000e+00
    endloop
  endfacet
  facet normal 9.335804e-01 3.583679e-01 -0.000000e+00
    outer loop
      vertex   1.650211e+01 -1.381966e+00 -3.750000e+00
      vertex   1.642709e+01 -1.186527e+00 7.000000e-01
      vertex   1.650211e+01 -1.381966e+00 7.000000e-01
    endloop
  endfacet
  facet normal 9.659258e-01 2.588190e-01 -0.000000e+00
    outer loop
      vertex   1.650211e+01 -1.381966e+00 -3.750000e+00
      vertex   1.650211e+01 -1.381966e+00 7.000000e-01
      vertex   1.655630e+01 -1.584177e+00 -3.750000e+00
    endloop
  endfacet
  facet normal 9.659258e-01 2.588190e-01 -0.000000e+00
    outer loop
      vertex   1.655630e+01 -1.584177e+00 -3.750000e+00
      vertex   1.650211e+01 -1.381966e+00 7.000000e-01
      vertex   1.655630e+01 -1.584177e+00 7.000000e-01
    endloop
  endfacet
  facet normal 9.876883e-01 1.564345e-01 -0.000000e+00
    outer loop
      vertex   1.655630e+01 -1.584177e+00 -3.750000e+00
      vertex   1.655630e+01 -1.584177e+00 7.000000e-01
      vertex   1.658904e+01 -1.790943e+00 -3.750000e+00
    endloop
  endfacet
  facet normal 9.876883e-01 1.564345e-01 7.885335e-16
    outer loop
      vertex   1.658904e+01 -1.790943e+00 -3.750000e+00
      vertex   1.655630e+01 -1.584177e+00 7.000000e-01
      vertex   1.658904e+01 -1.790943e+00 7.000000e-01
    endloop
  endfacet
  facet normal 9.986295e-01 5.233596e-02 7.972685e-16
    outer loop
      vertex   1.658904e+01 -1.790943e+00 -3.750000e+00
      vertex   1.658904e+01 -1.790943e+00 7.000000e-01
      vertex   1.660000e+01 -2.000000e+00 -3.750000e+00
    endloop
  endfacet
  facet normal 9.986295e-01 5.233596e-02 -1.493485e-19
    outer loop
      vertex   1.660000e+01 -2.000000e+00 -3.750000e+00
      vertex   1.658904e+01 -1.790943e+00 7.000000e-01
      vertex   1.658904e+01 -1.790943e+00 5.150000e+00
    endloop
  endfacet
  facet normal 9.986295e-01 5.233596e-02 -2.760790e-18
    outer loop
      vertex   1.660000e+01 -2.000000e+00 -3.750000e+00
      vertex   1.658904e+01 -1.790943e+00 5.150000e+00
      vertex   1.658904e+01 -1.790943e+00 9.600000e+00
    endloop
  endfacet
  facet normal 9.876883e-01 1.564345e-01 -7.805714e-18
    outer loop
      vertex   1.658904e+01 -1.790943e+00 9.600000e+00
      vertex   1.658904e+01 -1.790943e+00 5.150000e+00
      vertex   1.655630e+01 -1.584177e+00 9.600000e+00
    endloop
  endfacet
  facet normal 9.876883e-01 1.564345e-01 5.538375e-20
    outer loop
      vertex   1.658904e+01 -1.790943e+00 9.600000e+00
      vertex   1.655630e+01 -1.584177e+00 9.600000e+00
      vertex   1.655630e+01 -1.584177e+00 1.405000e+01
    endloop
  endfacet
  facet normal 9.659258e-01 2.588190e-01 0.000000e+00
    outer loop
      vertex   1.655630e+01 -1.584177e+00 1.405000e+01
      vertex   1.655630e+01 -1.584177e+00 9.600000e+00
      vertex   1.650211e+01 -1.381966e+00 1.405000e+01
    endloop
  endfacet
  facet normal 9.659258e-01 2.588190e-01 -2.918828e-19
    outer loop
      vertex   1.655630e+01 -1.584177e+00 1.405000e+01
      vertex   1.650211e+01 -1.381966e+00 1.405000e+01
      vertex   1.650211e+01 -1.381966e+00 1.850000e+01
    endloop
  endfacet
  facet normal 9.335804e-01 3.583679e-01 0.000000e+00
    outer loop
      vertex   1.650211e+01 -1.381966e+00 1.850000e+01
      vertex   1.650211e+01 -1.381966e+00 1.405000e+01
      vertex   1.642709e+01 -1.186527e+00 1.850000e+01
    endloop
  endfacet
  facet normal 9.335804e-01 3.583679e-01 -1.788172e-17
    outer loop
      vertex   1.642709e+01 -1.186527e+00 1.850000e+01
      vertex   1.650211e+01 -1.381966e+00 1.405000e+01
      vertex   1.642709e+01 -1.186527e+00 1.405000e+01
    endloop
  endfacet
  facet normal 8.910065e-01 4.539905e-01 -2.265307e-17
    outer loop
      vertex   1.642709e+01 -1.186527e+00 1.850000e+01
      vertex   1.642709e+01 -1.186527e+00 1.405000e+01
      vertex   1.633205e+01 -1.000000e+00 1.850000e+01
    endloop
  endfacet
  facet normal 8.910065e-01 4.539905e-01 -7.928573e-17
    outer loop
      vertex   1.633205e+01 -1.000000e+00 1.850000e+01
      vertex   1.642709e+01 -1.186527e+00 1.405000e+01
      vertex   1.633205e+01 -1.000000e+00 1.405000e+01
    endloop
  endfacet
  facet normal 8.386706e-01 5.446390e-01 -9.511675e-17
    outer loop
      vertex   1.633205e+01 -1.000000e+00 1.850000e+01
      vertex   1.633205e+01 -1.000000e+00 1.405000e+01
      vertex   1.621803e+01 -8.244295e-01 1.850000e+01
    endloop
  endfacet
  facet normal 8.386706e-01 5.446390e-01 2.717622e-17
    outer loop
      vertex   1.621803e+01 -8.244295e-01 1.850000e+01
      vertex   1.633205e+01 -1.000000e+00 1.405000e+01
      vertex   1.621803e+01 -8.244295e-01 1.405000e+01
    endloop
  endfacet
  facet normal 7.771460e-01 6.293204e-01 3.140162e-17
    outer loop
      vertex   1.621803e+01 -8.244295e-01 1.850000e+01
      vertex   1.621803e+01 -8.244295e-01 1.405000e+01
      vertex   1.608629e+01 -6.617388e-01 1.850000e+01
    endloop
  endfacet
  facet normal 7.771460e-01 6.293204e-01 6.280323e-17
    outer loop
      vertex   1.608629e+01 -6.617388e-01 1.850000e+01
      vertex   1.621803e+01 -8.244295e-01 1.405000e+01
      vertex   1.608629e+01 -6.617388e-01 1.405000e+01
    endloop
  endfacet
  facet normal 7.071068e-01 7.071068e-01 7.056595e-17
    outer loop
      vertex   1.608629e+01 -6.617388e-01 1.850000e+01
      vertex   1.608629e+01 -6.617388e-01 1.405000e+01
      vertex   1.593826e+01 -5.137103e-01 1.850000e+01
    endloop
  endfacet
  facet normal 7.071068e-01 7.071068e-01 0.000000e+00
    outer loop
      vertex   1.593826e+01 -5.137103e-01 1.850000e+01
      vertex   1.608629e+01 -6.617388e-01 1.405000e+01
      vertex   1.593826e+01 -5.137103e-01 1.405000e+01
    endloop
  endfacet
  facet normal 6.293204e-01 7.771460e-01 0.000000e+00
    outer loop
      vertex   1.593826e+01 -5.137103e-01 1.850000e+01
      vertex   1.593826e+01 -5.137103e-01 1.405000e+01
      vertex   1.577557e+01 -3.819660e-01 1.850000e+01
    endloop
  endfacet
  facet normal 6.293204e-01 7.771460e-01 9.694442e-18
    outer loop
      vertex   1.577557e+01 -3.819660e-01 1.850000e+01
      vertex   1.593826e+01 -5.137103e-01 1.405000e+01
      vertex   1.577557e+01 -3.819660e-01 1.405000e+01
    endloop
  endfacet
  facet normal 5.446390e-01 8.386706e-01 1.046193e-17
    outer loop
      vertex   1.577557e+01 -3.819660e-01 1.850000e+01
      vertex   1.577557e+01 -3.819660e-01 1.405000e+01
      vertex   1.560000e+01 -2.679492e-01 1.850000e+01
    endloop
  endfacet
  facet normal 5.446390e-01 8.386706e-01 -6.277155e-17
    outer loop
      vertex   1.560000e+01 -2.679492e-01 1.850000e+01
      vertex   1.577557e+01 -3.819660e-01 1.405000e+01
      vertex   1.560000e+01 -2.679492e-01 1.405000e+01
    endloop
  endfacet
  facet normal 4.539905e-01 8.910065e-01 -6.668872e-17
    outer loop
      vertex   1.560000e+01 -2.679492e-01 1.850000e+01
      vertex   1.560000e+01 -2.679492e-01 1.405000e+01
      vertex   1.541347e+01 -1.729091e-01 1.850000e+01
    endloop
  endfacet
  facet normal 4.539905e-01 8.910065e-01 2.256837e-16
    outer loop
      vertex   1.541347e+01 -1.729091e-01 1.850000e+01
      vertex   1.560000e+01 -2.679492e-01 1.405000e+01
      vertex   1.541347e+01 -1.729091e-01 1.405000e+01
    endloop
  endfacet
  facet normal 3.583679e-01 9.335804e-01 1.896373e-16
    outer loop
      vertex   1.541347e+01 -1.729091e-01 1.850000e+01
      vertex   1.541347e+01 -1.729091e-01 1.405000e+01
      vertex   1.521803e+01 -9.788697e-02 1.850000e+01
    endloop
  endfacet
  facet normal 3.583679e-01 9.335804e-01 5.822935e-17
    outer loop
      vertex   1.521803e+01 -9.788697e-02 1.850000e+01
      vertex   1.541347e+01 -1.729091e-01 1.405000e+01
      vertex   1.521803e+01 -9.788697e-02 1.405000e+01
    endloop
  endfacet
  facet normal 2.588190e-01 9.659258e-01 6.024680e-17
    outer loop
      vertex   1.521803e+01 -9.788697e-02 1.850000e+01
      vertex   1.521803e+01 -9.788697e-02 1.405000e+01
      vertex   1.501582e+01 -4.370480e-02 1.850000e+01
    endloop
  endfacet
  facet normal 2.588190e-01 9.659258e-01 6.024680e-17
    outer loop
      vertex   1.501582e+01 -4.370480e-02 1.850000e+01
      vertex   1.521803e+01 -9.788697e-02 1.405000e+01
      vertex   1.501582e+01 -4.370480e-02 1.405000e+01
    endloop
  endfacet
  facet normal 1.564345e-01 9.876883e-01 6.160418e-17
    outer loop
      vertex   1.501582e+01 -4.370480e-02 1.850000e+01
      vertex   1.501582e+01 -4.370480e-02 1.405000e+01
      vertex   1.480906e+01 -1.095621e-02 1.850000e+01
    endloop
  endfacet
  facet normal 1.564345e-01 9.876883e-01 -3.080209e-17
    outer loop
      vertex   1.480906e+01 -1.095621e-02 1.850000e+01
      vertex   1.501582e+01 -4.370480e-02 1.405000e+01
      vertex   1.480906e+01 -1.095621e-02 1.405000e+01
    endloop
  endfacet
  facet normal 9.659258e-01 2.588190e-01 -2.636171e-17
    outer loop
      vertex   1.650211e+01 -1.381966e+00 1.850000e+01
      vertex   1.655630e+01 -1.584177e+00 1.850000e+01
      vertex   1.655630e+01 -1.584177e+00 1.405000e+01
    endloop
  endfacet
  facet normal 9.876883e-01 1.564345e-01 -1.561143e-17
    outer loop
      vertex   1.655630e+01 -1.584177e+00 1.405000e+01
      vertex   1.655630e+01 -1.584177e+00 1.850000e+01
      vertex   1.658904e+01 -1.790943e+00 1.405000e+01
    endloop
  endfacet
  facet normal 9.876883e-01 1.564345e-01 5.538375e-20
    outer loop
      vertex   1.655630e+01 -1.584177e+00 1.405000e+01
      vertex   1.658904e+01 -1.790943e+00 1.405000e+01
      vertex   1.658904e+01 -1.790943e+00 9.600000e+00
    endloop
  endfacet
  facet normal 9.986295e-01 5.233596e-02 -0.000000e+00
    outer loop
      vertex   1.658904e+01 -1.790943e+00 9.600000e+00
      vertex   1.658904e+01 -1.790943e+00 1.405000e+01
      vertex   1.660000e+01 -2.000000e+00 1.850000e+01
    endloop
  endfacet
  facet normal 9.986295e-01 5.233596e-02 6.481033e-21
    outer loop
      vertex   1.658904e+01 -1.790943e+00 9.600000e+00
      vertex   1.660000e+01 -2.000000e+00 1.850000e+01
      vertex   1.660000e+01 -2.000000e+00 -3.750000e+00
    endloop
  endfacet
  facet normal 9.876883e-01 1.564345e-01 -1.555605e-17
    outer loop
      vertex   1.655630e+01 -1.584177e+00 1.850000e+01
      vertex   1.658904e+01 -1.790943e+00 1.850000e+01
      vertex   1.658904e+01 -1.790943e+00 1.405000e+01
    endloop
  endfacet
  facet normal 9.986295e-01 5.233596e-02 -5.222884e-18
    outer loop
      vertex   1.658904e+01 -1.790943e+00 1.405000e+01
      vertex   1.658904e+01 -1.790943e+00 1.850000e+01
      vertex   1.660000e+01 -2.000000e+00 1.850000e+01
    endloop
  endfacet
  facet normal 2.588190e-01 9.659258e-01 -2.925431e-17
    outer loop
      vertex   1.521803e+01 -9.788697e-02 -3.750000e+00
      vertex   1.501582e+01 -4.370480e-02 -3.750000e+00
      vertex   1.501582e+01 -4.370480e-02 7.000000e-01
    endloop
  endfacet
  facet normal 1.564345e-01 9.876883e-01 -3.080209e-17
    outer loop
      vertex   1.501582e+01 -4.370480e-02 7.000000e-01
      vertex   1.501582e+01 -4.370480e-02 -3.750000e+00
      vertex   1.480906e+01 -1.095621e-02 7.000000e-01
    endloop
  endfacet
  facet normal 1.564345e-01 9.876883e-01 4.337632e-19
    outer loop
      vertex   1.501582e+01 -4.370480e-02 7.000000e-01
      vertex   1.480906e+01 -1.095621e-02 7.000000e-01
      vertex   1.480906e+01 -1.095621e-02 5.150000e+00
    endloop
  endfacet
  facet normal 5.233596e-02 9.986295e-01 0.000000e+00
    outer loop
      vertex   1.480906e+01 -1.095621e-02 5.150000e+00
      vertex   1.480906e+01 -1.095621e-02 7.000000e-01
      vertex   1.460000e+01 0.000000e+00 -3.750000e+00
    endloop
  endfacet
  facet normal 5.233596e-02 9.986295e-01 -4.000350e-20
    outer loop
      vertex   1.480906e+01 -1.095621e-02 5.150000e+00
      vertex   1.460000e+01 0.000000e+00 -3.750000e+00
      vertex   1.460000e+01 0.000000e+00 1.850000e+01
    endloop
  endfacet
  facet normal 1.564345e-01 9.876883e-01 3.568266e-19
    outer loop
      vertex   1.501582e+01 -4.370480e-02 -3.750000e+00
      vertex   1.480906e+01 -1.095621e-02 -3.750000e+00
      vertex   1.480906e+01 -1.095621e-02 7.000000e-01
    endloop
  endfacet
  facet normal 5.233596e-02 9.986295e-01 0.000000e+00
    outer loop
      vertex   1.480906e+01 -1.095621e-02 7.000000e-01
      vertex   1.480906e+01 -1.095621e-02 -3.750000e+00
      vertex   1.460000e+01 0.000000e+00 -3.750000e+00
    endloop
  endfacet
  facet normal 1.564345e-01 9.876883e-01 -0.000000e+00
    outer loop
      vertex   1.480906e+01 -1.095621e-02 9.600000e+00
      vertex   1.480906e+01 -1.095621e-02 1.405000e+01
      vertex   1.501582e+01 -4.370480e-02 9.600000e+00
    endloop
  endfacet
  facet normal 1.564345e-01 9.876883e-01 -0.000000e+00
    outer loop
      vertex   1.501582e+01 -4.370480e-02 9.600000e+00
      vertex   1.480906e+01 -1.095621e-02 1.405000e+01
      vertex   1.501582e+01 -4.370480e-02 1.405000e+01
    endloop
  endfacet
  facet normal 2.588190e-01 9.659258e-01 -0.000000e+00
    outer loop
      vertex   1.501582e+01 -4.370480e-02 9.600000e+00
      vertex   1.501582e+01 -4.370480e-02 1.405000e+01
      vertex   1.521803e+01 -9.788697e-02 9.600000e+00
    endloop
  endfacet
  facet normal 2.588190e-01 9.659258e-01 -0.000000e+00
    outer loop
      vertex   1.521803e+01 -9.788697e-02 9.600000e+00
      vertex   1.501582e+01 -4.370480e-02 1.405000e+01
      vertex   1.521803e+01 -9.788697e-02 1.405000e+01
    endloop
  endfacet
  facet normal 3.583679e-01 9.335804e-01 -0.000000e+00
    outer loop
      vertex   1.521803e+01 -9.788697e-02 9.600000e+00
      vertex   1.521803e+01 -9.788697e-02 1.405000e+01
      vertex   1.541347e+01 -1.729091e-01 9.600000e+00
    endloop
  endfacet
  facet normal 3.583679e-01 9.335804e-01 -5.822935e-17
    outer loop
      vertex   1.541347e+01 -1.729091e-01 9.600000e+00
      vertex   1.521803e+01 -9.788697e-02 1.405000e+01
      vertex   1.541347e+01 -1.729091e-01 1.405000e+01
    endloop
  endfacet
  facet normal 4.539905e-01 8.910065e-01 -5.557393e-17
    outer loop
      vertex   1.541347e+01 -1.729091e-01 9.600000e+00
      vertex   1.541347e+01 -1.729091e-01 1.405000e+01
      vertex   1.560000e+01 -2.679492e-01 9.600000e+00
    endloop
  endfacet
  facet normal 4.539905e-01 8.910065e-01 -0.000000e+00
    outer loop
      vertex   1.560000e+01 -2.679492e-01 9.600000e+00
      vertex   1.541347e+01 -1.729091e-01 1.405000e+01
      vertex   1.560000e+01 -2.679492e-01 1.405000e+01
    endloop
  endfacet
  facet normal 5.446390e-01 8.386706e-01 -0.000000e+00
    outer loop
      vertex   1.560000e+01 -2.679492e-01 9.600000e+00
      vertex   1.560000e+01 -2.679492e-01 1.405000e+01
      vertex   1.577557e+01 -3.819660e-01 9.600000e+00
    endloop
  endfacet
  facet normal 5.446390e-01 8.386706e-01 -0.000000e+00
    outer loop
      vertex   1.577557e+01 -3.819660e-01 9.600000e+00
      vertex   1.560000e+01 -2.679492e-01 1.405000e+01
      vertex   1.577557e+01 -3.819660e-01 1.405000e+01
    endloop
  endfacet
  facet normal 6.293204e-01 7.771460e-01 -0.000000e+00
    outer loop
      vertex   1.577557e+01 -3.819660e-01 9.600000e+00
      vertex   1.577557e+01 -3.819660e-01 1.405000e+01
      vertex   1.593826e+01 -5.137103e-01 9.600000e+00
    endloop
  endfacet
  facet normal 6.293204e-01 7.771460e-01 -0.000000e+00
    outer loop
      vertex   1.593826e+01 -5.137103e-01 9.600000e+00
      vertex   1.577557e+01 -3.819660e-01 1.405000e+01
      vertex   1.593826e+01 -5.137103e-01 1.405000e+01
    endloop
  endfacet
  facet normal 7.071068e-01 7.071068e-01 -0.000000e+00
    outer loop
      vertex   1.593826e+01 -5.137103e-01 9.600000e+00
      vertex   1.593826e+01 -5.137103e-01 1.405000e+01
      vertex   1.608629e+01 -6.617388e-01 9.600000e+00
    endloop
  endfacet
  facet normal 7.071068e-01 7.071068e-01 -0.000000e+00
    outer loop
      vertex   1.608629e+01 -6.617388e-01 9.600000e+00
      vertex   1.593826e+01 -5.137103e-01 1.405000e+01
      vertex   1.608629e+01 -6.617388e-01 1.405000e+01
    endloop
  endfacet
  facet normal 7.771460e-01 6.293204e-01 -0.000000e+00
    outer loop
      vertex   1.608629e+01 -6.617388e-01 9.600000e+00
      vertex   1.608629e+01 -6.617388e-01 1.405000e+01
      vertex   1.621803e+01 -8.244295e-01 9.600000e+00
    endloop
  endfacet
  facet normal 7.771460e-01 6.293204e-01 -0.000000e+00
    outer loop
      vertex   1.621803e+01 -8.244295e-01 9.600000e+00
      vertex   1.608629e+01 -6.617388e-01 1.405000e+01
      vertex   1.621803e+01 -8.244295e-01 1.405000e+01
    endloop
  endfacet
  facet normal 8.386706e-01 5.446390e-01 -0.000000e+00
    outer loop
      vertex   1.621803e+01 -8.244295e-01 9.600000e+00
      vertex   1.621803e+01 -8.244295e-01 1.405000e+01
      vertex   1.633205e+01 -1.000000e+00 9.600000e+00
    endloop
  endfacet
  facet normal 8.386706e-01 5.446390e-01 -0.000000e+00
    outer loop
      vertex   1.633205e+01 -1.000000e+00 9.600000e+00
      vertex   1.621803e+01 -8.244295e-01 1.405000e+01
      vertex   1.633205e+01 -1.000000e+00 1.405000e+01
    endloop
  endfacet
  facet normal 8.910065e-01 4.539905e-01 -0.000000e+00
    outer loop
      vertex   1.633205e+01 -1.000000e+00 9.600000e+00
      vertex   1.633205e+01 -1.000000e+00 1.405000e+01
      vertex   1.642709e+01 -1.186527e+00 9.600000e+00
    endloop
  endfacet
  facet normal 8.910065e-01 4.539905e-01 -2.265307e-17
    outer loop
      vertex   1.642709e+01 -1.186527e+00 9.600000e+00
      vertex   1.633205e+01 -1.000000e+00 1.405000e+01
      vertex   1.642709e+01 -1.186527e+00 1.405000e+01
    endloop
  endfacet
  facet normal 9.335804e-01 3.583679e-01 -1.788172e-17
    outer loop
      vertex   1.642709e+01 -1.186527e+00 9.600000e+00
      vertex   1.642709e+01 -1.186527e+00 1.405000e+01
      vertex   1.650211e+01 -1.381966e+00 9.600000e+00
    endloop
  endfacet
  facet normal 9.335804e-01 3.583679e-01 -0.000000e+00
    outer loop
      vertex   1.650211e+01 -1.381966e+00 9.600000e+00
      vertex   1.642709e+01 -1.186527e+00 1.405000e+01
      vertex   1.650211e+01 -1.381966e+00 1.405000e+01
    endloop
  endfacet
  facet normal 9.659258e-01 2.588190e-01 -0.000000e+00
    outer loop
      vertex   1.650211e+01 -1.381966e+00 9.600000e+00
      vertex   1.650211e+01 -1.381966e+00 1.405000e+01
      vertex   1.655630e+01 -1.584177e+00 9.600000e+00
    endloop
  endfacet
  facet normal 1.564345e-01 9.876883e-01 4.337632e-19
    outer loop
      vertex   1.480906e+01 -1.095621e-02 9.600000e+00
      vertex   1.501582e+01 -4.370480e-02 9.600000e+00
      vertex   1.501582e+01 -4.370480e-02 5.150000e+00
    endloop
  endfacet
  facet normal 2.588190e-01 9.659258e-01 -0.000000e+00
    outer loop
      vertex   1.501582e+01 -4.370480e-02 5.150000e+00
      vertex   1.501582e+01 -4.370480e-02 9.600000e+00
      vertex   1.521803e+01 -9.788697e-02 5.150000e+00
    endloop
  endfacet
  facet normal 2.588190e-01 9.659258e-01 -5.970703e-17
    outer loop
      vertex   1.501582e+01 -4.370480e-02 5.150000e+00
      vertex   1.521803e+01 -9.788697e-02 5.150000e+00
      vertex   1.521803e+01 -9.788697e-02 7.000000e-01
    endloop
  endfacet
  facet normal 3.583679e-01 9.335804e-01 -5.822935e-17
    outer loop
      vertex   1.521803e+01 -9.788697e-02 7.000000e-01
      vertex   1.521803e+01 -9.788697e-02 5.150000e+00
      vertex   1.541347e+01 -1.729091e-01 7.000000e-01
    endloop
  endfacet
  facet normal 2.588190e-01 9.659258e-01 -0.000000e+00
    outer loop
      vertex   1.521803e+01 -9.788697e-02 5.150000e+00
      vertex   1.501582e+01 -4.370480e-02 9.600000e+00
      vertex   1.521803e+01 -9.788697e-02 9.600000e+00
    endloop
  endfacet
  facet normal 3.583679e-01 9.335804e-01 -0.000000e+00
    outer loop
      vertex   1.521803e+01 -9.788697e-02 5.150000e+00
      vertex   1.521803e+01 -9.788697e-02 9.600000e+00
      vertex   1.541347e+01 -1.729091e-01 5.150000e+00
    endloop
  endfacet
  facet normal 3.583679e-01 9.335804e-01 -5.822935e-17
    outer loop
      vertex   1.541347e+01 -1.729091e-01 5.150000e+00
      vertex   1.521803e+01 -9.788697e-02 9.600000e+00
      vertex   1.541347e+01 -1.729091e-01 9.600000e+00
    endloop
  endfacet
  facet normal 4.539905e-01 8.910065e-01 -5.557393e-17
    outer loop
      vertex   1.541347e+01 -1.729091e-01 5.150000e+00
      vertex   1.541347e+01 -1.729091e-01 9.600000e+00
      vertex   1.560000e+01 -2.679492e-01 5.150000e+00
    endloop
  endfacet
  facet normal 4.539905e-01 8.910065e-01 -0.000000e+00
    outer loop
      vertex   1.560000e+01 -2.679492e-01 5.150000e+00
      vertex   1.541347e+01 -1.729091e-01 9.600000e+00
      vertex   1.560000e+01 -2.679492e-01 9.600000e+00
    endloop
  endfacet
  facet normal 5.446390e-01 8.386706e-01 -0.000000e+00
    outer loop
      vertex   1.560000e+01 -2.679492e-01 5.150000e+00
      vertex   1.560000e+01 -2.679492e-01 9.600000e+00
      vertex   1.577557e+01 -3.819660e-01 5.150000e+00
    endloop
  endfacet
  facet normal 5.446390e-01 8.386706e-01 -0.000000e+00
    outer loop
      vertex   1.577557e+01 -3.819660e-01 5.150000e+00
      vertex   1.560000e+01 -2.679492e-01 9.600000e+00
      vertex   1.577557e+01 -3.819660e-01 9.600000e+00
    endloop
  endfacet
  facet normal 6.293204e-01 7.771460e-01 -0.000000e+00
    outer loop
      vertex   1.577557e+01 -3.819660e-01 5.150000e+00
      vertex   1.577557e+01 -3.819660e-01 9.600000e+00
      vertex   1.593826e+01 -5.137103e-01 5.150000e+00
    endloop
  endfacet
  facet normal 6.293204e-01 7.771460e-01 4.636481e-16
    outer loop
      vertex   1.593826e+01 -5.137103e-01 5.150000e+00
      vertex   1.577557e+01 -3.819660e-01 9.600000e+00
      vertex   1.593826e+01 -5.137103e-01 9.600000e+00
    endloop
  endfacet
  facet normal 7.071068e-01 7.071068e-01 5.292446e-16
    outer loop
      vertex   1.593826e+01 -5.137103e-01 5.150000e+00
      vertex   1.593826e+01 -5.137103e-01 9.600000e+00
      vertex   1.608629e+01 -6.617388e-01 5.150000e+00
    endloop
  endfacet
  facet normal 7.071068e-01 7.071068e-01 -0.000000e+00
    outer loop
      vertex   1.608629e+01 -6.617388e-01 5.150000e+00
      vertex   1.593826e+01 -5.137103e-01 9.600000e+00
      vertex   1.608629e+01 -6.617388e-01 9.600000e+00
    endloop
  endfacet
  facet normal 7.771460e-01 6.293204e-01 -0.000000e+00
    outer loop
      vertex   1.608629e+01 -6.617388e-01 5.150000e+00
      vertex   1.608629e+01 -6.617388e-01 9.600000e+00
      vertex   1.621803e+01 -8.244295e-01 5.150000e+00
    endloop
  endfacet
  facet normal 7.771460e-01 6.293204e-01 -0.000000e+00
    outer loop
      vertex   1.621803e+01 -8.244295e-01 5.150000e+00
      vertex   1.608629e+01 -6.617388e-01 9.600000e+00
      vertex   1.621803e+01 -8.244295e-01 9.600000e+00
    endloop
  endfacet
  facet normal 8.386706e-01 5.446390e-01 -0.000000e+00
    outer loop
      vertex   1.621803e+01 -8.244295e-01 5.150000e+00
      vertex   1.621803e+01 -8.244295e-01 9.600000e+00
      vertex   1.633205e+01 -1.000000e+00 5.150000e+00
    endloop
  endfacet
  facet normal 8.386706e-01 5.446390e-01 -0.000000e+00
    outer loop
      vertex   1.633205e+01 -1.000000e+00 5.150000e+00
      vertex   1.621803e+01 -8.244295e-01 9.600000e+00
      vertex   1.633205e+01 -1.000000e+00 9.600000e+00
    endloop
  endfacet
  facet normal 8.910065e-01 4.539905e-01 -0.000000e+00
    outer loop
      vertex   1.633205e+01 -1.000000e+00 5.150000e+00
      vertex   1.633205e+01 -1.000000e+00 9.600000e+00
      vertex   1.642709e+01 -1.186527e+00 5.150000e+00
    endloop
  endfacet
  facet normal 8.910065e-01 4.539905e-01 -0.000000e+00
    outer loop
      vertex   1.642709e+01 -1.186527e+00 5.150000e+00
      vertex   1.633205e+01 -1.000000e+00 9.600000e+00
      vertex   1.642709e+01 -1.186527e+00 9.600000e+00
    endloop
  endfacet
  facet normal 9.335804e-01 3.583679e-01 -0.000000e+00
    outer loop
      vertex   1.642709e+01 -1.186527e+00 5.150000e+00
      vertex   1.642709e+01 -1.186527e+00 9.600000e+00
      vertex   1.650211e+01 -1.381966e+00 5.150000e+00
    endloop
  endfacet
  facet normal 9.335804e-01 3.583679e-01 -0.000000e+00
    outer loop
      vertex   1.650211e+01 -1.381966e+00 5.150000e+00
      vertex   1.642709e+01 -1.186527e+00 9.600000e+00
      vertex   1.650211e+01 -1.381966e+00 9.600000e+00
    endloop
  endfacet
  facet normal 9.659258e-01 2.588190e-01 -0.000000e+00
    outer loop
      vertex   1.650211e+01 -1.381966e+00 5.150000e+00
      vertex   1.650211e+01 -1.381966e+00 9.600000e+00
      vertex   1.655630e+01 -1.584177e+00 5.150000e+00
    endloop
  endfacet
  facet normal 9.659258e-01 2.588190e-01 -0.000000e+00
    outer loop
      vertex   1.655630e+01 -1.584177e+00 5.150000e+00
      vertex   1.650211e+01 -1.381966e+00 9.600000e+00
      vertex   1.655630e+01 -1.584177e+00 9.600000e+00
    endloop
  endfacet
  facet normal 9.876883e-01 1.564345e-01 -0.000000e+00
    outer loop
      vertex   1.655630e+01 -1.584177e+00 5.150000e+00
      vertex   1.655630e+01 -1.584177e+00 9.600000e+00
      vertex   1.658904e+01 -1.790943e+00 5.150000e+00
    endloop
  endfacet
  facet normal 4.539905e-01 8.910065e-01 1.261096e-16
    outer loop
      vertex   1.560000e+01 -2.679492e-01 7.000000e-01
      vertex   1.541347e+01 -1.729091e-01 7.000000e-01
      vertex   1.541347e+01 -1.729091e-01 5.150000e+00
    endloop
  endfacet
  facet normal 3.583679e-01 9.335804e-01 8.482444e-17
    outer loop
      vertex   1.541347e+01 -1.729091e-01 5.150000e+00
      vertex   1.541347e+01 -1.729091e-01 7.000000e-01
      vertex   1.521803e+01 -9.788697e-02 5.150000e+00
    endloop
  endfacet
  facet normal 4.539905e-01 8.910065e-01 -0.000000e+00
    outer loop
      vertex   1.560000e+01 -2.679492e-01 7.000000e-01
      vertex   1.541347e+01 -1.729091e-01 5.150000e+00
      vertex   1.560000e+01 -2.679492e-01 5.150000e+00
    endloop
  endfacet
  facet normal 5.446390e-01 8.386706e-01 -1.527653e-20
    outer loop
      vertex   1.577557e+01 -3.819660e-01 7.000000e-01
      vertex   1.560000e+01 -2.679492e-01 7.000000e-01
      vertex   1.560000e+01 -2.679492e-01 5.150000e+00
    endloop
  endfacet
  facet normal 5.446390e-01 8.386706e-01 -0.000000e+00
    outer loop
      vertex   1.577557e+01 -3.819660e-01 7.000000e-01
      vertex   1.560000e+01 -2.679492e-01 5.150000e+00
      vertex   1.577557e+01 -3.819660e-01 5.150000e+00
    endloop
  endfacet
  facet normal 6.293204e-01 7.771460e-01 5.102887e-19
    outer loop
      vertex   1.593826e+01 -5.137103e-01 7.000000e-01
      vertex   1.577557e+01 -3.819660e-01 7.000000e-01
      vertex   1.577557e+01 -3.819660e-01 5.150000e+00
    endloop
  endfacet
  facet normal 6.293204e-01 7.771460e-01 -3.877777e-17
    outer loop
      vertex   1.593826e+01 -5.137103e-01 7.000000e-01
      vertex   1.577557e+01 -3.819660e-01 5.150000e+00
      vertex   1.593826e+01 -5.137103e-01 5.150000e+00
    endloop
  endfacet
  facet normal 7.071068e-01 7.071068e-01 -3.520437e-17
    outer loop
      vertex   1.608629e+01 -6.617388e-01 7.000000e-01
      vertex   1.593826e+01 -5.137103e-01 7.000000e-01
      vertex   1.593826e+01 -5.137103e-01 5.150000e+00
    endloop
  endfacet
  facet normal 7.071068e-01 7.071068e-01 -0.000000e+00
    outer loop
      vertex   1.608629e+01 -6.617388e-01 7.000000e-01
      vertex   1.593826e+01 -5.137103e-01 5.150000e+00
      vertex   1.608629e+01 -6.617388e-01 5.150000e+00
    endloop
  endfacet
  facet normal 7.771460e-01 6.293204e-01 -5.316470e-19
    outer loop
      vertex   1.621803e+01 -8.244295e-01 7.000000e-01
      vertex   1.608629e+01 -6.617388e-01 7.000000e-01
      vertex   1.608629e+01 -6.617388e-01 5.150000e+00
    endloop
  endfacet
  facet normal 7.771460e-01 6.293204e-01 -0.000000e+00
    outer loop
      vertex   1.621803e+01 -8.244295e-01 7.000000e-01
      vertex   1.608629e+01 -6.617388e-01 5.150000e+00
      vertex   1.621803e+01 -8.244295e-01 5.150000e+00
    endloop
  endfacet
  facet normal 8.386706e-01 5.446390e-01 -1.495001e-18
    outer loop
      vertex   1.633205e+01 -1.000000e+00 7.000000e-01
      vertex   1.621803e+01 -8.244295e-01 7.000000e-01
      vertex   1.621803e+01 -8.244295e-01 5.150000e+00
    endloop
  endfacet
  facet normal 8.386706e-01 5.446390e-01 -0.000000e+00
    outer loop
      vertex   1.633205e+01 -1.000000e+00 7.000000e-01
      vertex   1.621803e+01 -8.244295e-01 5.150000e+00
      vertex   1.633205e+01 -1.000000e+00 5.150000e+00
    endloop
  endfacet
  facet normal 8.910065e-01 4.539905e-01 9.416477e-19
    outer loop
      vertex   1.642709e+01 -1.186527e+00 7.000000e-01
      vertex   1.633205e+01 -1.000000e+00 7.000000e-01
      vertex   1.633205e+01 -1.000000e+00 5.150000e+00
    endloop
  endfacet
  facet normal 8.910065e-01 4.539905e-01 -2.265307e-17
    outer loop
      vertex   1.642709e+01 -1.186527e+00 7.000000e-01
      vertex   1.633205e+01 -1.000000e+00 5.150000e+00
      vertex   1.642709e+01 -1.186527e+00 5.150000e+00
    endloop
  endfacet
  facet normal 9.335804e-01 3.583679e-01 -1.784888e-17
    outer loop
      vertex   1.650211e+01 -1.381966e+00 7.000000e-01
      vertex   1.642709e+01 -1.186527e+00 7.000000e-01
      vertex   1.642709e+01 -1.186527e+00 5.150000e+00
    endloop
  endfacet
  facet normal 9.335804e-01 3.583679e-01 -0.000000e+00
    outer loop
      vertex   1.650211e+01 -1.381966e+00 7.000000e-01
      vertex   1.642709e+01 -1.186527e+00 5.150000e+00
      vertex   1.650211e+01 -1.381966e+00 5.150000e+00
    endloop
  endfacet
  facet normal 9.659258e-01 2.588190e-01 -2.918828e-19
    outer loop
      vertex   1.655630e+01 -1.584177e+00 7.000000e-01
      vertex   1.650211e+01 -1.381966e+00 7.000000e-01
      vertex   1.650211e+01 -1.381966e+00 5.150000e+00
    endloop
  endfacet
  facet normal 9.659258e-01 2.588190e-01 -0.000000e+00
    outer loop
      vertex   1.655630e+01 -1.584177e+00 7.000000e-01
      vertex   1.650211e+01 -1.381966e+00 5.150000e+00
      vertex   1.655630e+01 -1.584177e+00 5.150000e+00
    endloop
  endfacet
  facet normal 9.876883e-01 1.564345e-01 -3.018090e-19
    outer loop
      vertex   1.658904e+01 -1.790943e+00 7.000000e-01
      vertex   1.655630e+01 -1.584177e+00 7.000000e-01
      vertex   1.655630e+01 -1.584177e+00 5.150000e+00
    endloop
  endfacet
  facet normal 9.876883e-01 1.564345e-01 -0.000000e+00
    outer loop
      vertex   1.658904e+01 -1.790943e+00 7.000000e-01
      vertex   1.655630e+01 -1.584177e+00 5.150000e+00
      vertex   1.658904e+01 -1.790943e+00 5.150000e+00
    endloop
  endfacet
  facet normal 0.000000e+00 0.000000e+00 1.000000e+00
    outer loop
      vertex   1.658904e+01 -1.790943e+00 1.850000e+01
      vertex   1.460000e+01 0.000000e+00 1.850000e+01
      vertex   1.660000e+01 -2.000000e+00 1.850000e+01
    endloop
  endfacet
  facet normal 0.000000e+00 0.000000e+00 1.000000e+00
    outer loop
      vertex   1.660000e+01 -2.000000e+00 1.850000e+01
      vertex   1.460000e+01 0.000000e+00 1.850000e+01
      vertex   1.160000e+01 0.000000e+00 1.850000e+01
    endloop
  endfacet
  facet normal 0.000000e+00 0.000000e+00 1.000000e+00
    outer loop
      vertex   1.660000e+01 -2.000000e+00 1.850000e+01
      vertex   1.160000e+01 0.000000e+00 1.850000e+01
      vertex   8.600000e+00 -2.000000e+00 1.850000e+01
    endloop
  endfacet
  facet normal 0.000000e+00 0.000000e+00 1.000000e+00
    outer loop
      vertex   8.600000e+00 -2.000000e+00 1.850000e+01
      vertex   1.160000e+01 0.000000e+00 1.850000e+01
      vertex   8.600000e+00 0.000000e+00 1.850000e+01
    endloop
  endfacet
  facet normal 0.000000e+00 0.000000e+00 1.000000e+00
    outer loop
      vertex   8.600000e+00 0.000000e+00 1.850000e+01
      vertex   1.160000e+01 0.000000e+00 1.850000e+01
      vertex   1.000000e+01 1.000000e+01 1.850000e+01
    endloop
  endfacet
  facet normal 0.000000e+00 -0.000000e+00 1.000000e+00
    outer loop
      vertex   8.600000e+00 0.000000e+00 1.850000e+01
      vertex   1.000000e+01 1.000000e+01 1.850000e+01
      vertex   0.000000e+00 5.000000e+00 1.850000e+01
    endloop
  endfacet
  facet normal 0.000000e+00 0.000000e+00 1.000000e+00
    outer loop
      vertex   0.000000e+00 5.000000e+00 1.850000e+01
      vertex   1.000000e+01 1.000000e+01 1.850000e+01
      vertex   0.000000e+00 1.000000e+01 1.850000e+01
    endloop
  endfacet
  facet normal 0.000000e+00 0.000000e+00 1.000000e+00
    outer loop
      vertex   1.658904e+01 -1.790943e+00 1.850000e+01
      vertex   1.655630e+01 -1.584177e+00 1.850000e+01
      vertex   1.460000e+01 0.000000e+00 1.850000e+01
    endloop
  endfacet
  facet normal 0.000000e+00 0.000000e+00 1.000000e+00
    outer loop
      vertex   1.460000e+01 0.000000e+00 1.850000e+01
      vertex   1.655630e+01 -1.584177e+00 1.850000e+01
      vertex   1.650211e+01 -1.381966e+00 1.850000e+01
    endloop
  endfacet
  facet normal 0.000000e+00 0.000000e+00 1.000000e+00
    outer loop
      vertex   1.460000e+01 0.000000e+00 1.850000e+01
      vertex   1.650211e+01 -1.381966e+00 1.850000e+01
      vertex   1.642709e+01 -1.186527e+00 1.850000e+01
    endloop
  endfacet
  facet normal 0.000000e+00 0.000000e+00 1.000000e+00
    outer loop
      vertex   1.642709e+01 -1.186527e+00 1.850000e+01
      vertex   1.633205e+01 -1.000000e+00 1.850000e+01
      vertex   1.460000e+01 0.000000e+00 1.850000e+01
    endloop
  endfacet
  facet normal 0.000000e+00 0.000000e+00 1.000000e+00
    outer loop
      vertex   1.460000e+01 0.000000e+00 1.850000e+01
      vertex   1.633205e+01 -1.000000e+00 1.850000e+01
      vertex   1.621803e+01 -8.244295e-01 1.850000e+01
    endloop
  endfacet
  facet normal 0.000000e+00 0.000000e+00 1.000000e+00
    outer loop
      vertex   1.460000e+01 0.000000e+00 1.850000e+01
      vertex   1.621803e+01 -8.244295e-01 1.850000e+01
      vertex   1.608629e+01 -6.617388e-01 1.850000e+01
    endloop
  endfacet
  facet normal 0.000000e+00 0.000000e+00 1.000000e+00
    outer loop
      vertex   1.608629e+01 -6.617388e-01 1.850000e+01
      vertex   1.593826e+01 -5.137103e-01 1.850000e+01
      vertex   1.460000e+01 0.000000e+00 1.850000e+01
    endloop
  endfacet
  facet normal 0.000000e+00 0.000000e+00 1.000000e+00
    outer loop
      vertex   1.460000e+01 0.000000e+00 1.850000e+01
      vertex   1.593826e+01 -5.137103e-01 1.850000e+01
      vertex   1.577557e+01 -3.819660e-01 1.850000e+01
    endloop
  endfacet
  facet normal 0.000000e+00 0.000000e+00 1.000000e+00
    outer loop
      vertex   1.460000e+01 0.000000e+00 1.850000e+01
      vertex   1.577557e+01 -3.819660e-01 1.850000e+01
      vertex   1.560000e+01 -2.679492e-01 1.850000e+01
    endloop
  endfacet
  facet normal 0.000000e+00 0.000000e+00 1.000000e+00
    outer loop
      vertex   1.560000e+01 -2.679492e-01 1.850000e+01
      vertex   1.541347e+01 -1.729091e-01 1.850000e+01
      vertex   1.460000e+01 0.000000e+00 1.850000e+01
    endloop
  endfacet
  facet normal 0.000000e+00 0.000000e+00 1.000000e+00
    outer loop
      vertex   1.460000e+01 0.000000e+00 1.850000e+01
      vertex   1.541347e+01 -1.729091e-01 1.850000e+01
      vertex   1.521803e+01 -9.788697e-02 1.850000e+01
    endloop
  endfacet
  facet normal 0.000000e+00 0.000000e+00 1.000000e+00
    outer loop
      vertex   1.460000e+01 0.000000e+00 1.850000e+01
      vertex   1.521803e+01 -9.788697e-02 1.850000e+01
      vertex   1.501582e+01 -4.370480e-02 1.850000e+01
    endloop
  endfacet
  facet normal 0.000000e+00 0.000000e+00 1.000000e+00
    outer loop
      vertex   1.501582e+01 -4.370480e-02 1.850000e+01
      vertex   1.480906e+01 -1.095621e-02 1.850000e+01
      vertex   1.460000e+01 0.000000e+00 1.850000e+01
    endloop
  endfacet
  facet normal 0.000000e+00 0.000000e+00 1.000000e+00
    outer loop
      vertex   0.000000e+00 5.000000e+00 1.850000e+01
      vertex   3.000000e+00 0.000000e+00 1.850000e+01
      vertex   8.600000e+00 0.000000e+00 1.850000e+01
    endloop
  endfacet
  facet normal 0.000000e+00 1.000000e+00 -0.000000e+00
    outer loop
      vertex   1.460000e+01 0.000000e+00 -3.750000e+00
      vertex   1.160000e+01 0.000000e+00 -3.750000e+00
      vertex   1.460000e+01 0.000000e+00 1.850000e+01
    endloop
  endfacet
  facet normal 0.000000e+00 1.000000e+00 0.000000e+00
    outer loop
      vertex   1.460000e+01 0.000000e+00 1.850000e+01
      vertex   1.160000e+01 0.000000e+00 -3.750000e+00
      vertex   1.160000e+01 0.000000e+00 1.850000e+01
    endloop
  endfacet
  facet normal -1.000000e+00 0.000000e+00 0.000000e+00
    outer loop
      vertex   8.600000e+00 0.000000e+00 0.000000e+00
      vertex   8.600000e+00 -2.000000e+00 0.000000e+00
      vertex   8.600000e+00 0.000000e+00 1.850000e+01
    endloop
  endfacet
  facet normal -1.000000e+00 -0.000000e+00 0.000000e+00
    outer loop
      vertex   8.600000e+00 0.000000e+00 1.850000e+01
      vertex   8.600000e+00 -2.000000e+00 0.000000e+00
      vertex   8.600000e+00 -2.000000e+00 1.850000e+01
    endloop
  endfacet
  facet normal -0.000000e+00 0.000000e+00 1.000000e+00
    outer loop
      vertex   6.850000e+00 -3.540000e+01 0.000000e+00
      vertex   8.600000e+00 -3.775000e+01 0.000000e+00
      vertex   6.850000e+00 -2.530000e+01 0.000000e+00
    endloop
  endfacet
  facet normal -0.000000e+00 0.000000e+00 1.000000e+00
    outer loop
      vertex   6.850000e+00 -2.530000e+01 0.000000e+00
      vertex   8.600000e+00 -3.775000e+01 0.000000e+00
      vertex   8.600000e+00 -2.000000e+00 0.000000e+00
    endloop
  endfacet
  facet normal 0.000000e+00 0.000000e+00 1.000000e+00
    outer loop
      vertex   6.850000e+00 -2.530000e+01 0.000000e+00
      vertex   8.600000e+00 -2.000000e+00 0.000000e+00
      vertex   6.850000e+00 -1.050000e+01 0.000000e+00
    endloop
  endfacet
  facet normal 0.000000e+00 0.000000e+00 1.000000e+00
    outer loop
      vertex   6.850000e+00 -1.050000e+01 0.000000e+00
      vertex   8.600000e+00 -2.000000e+00 0.000000e+00
      vertex   6.850000e+00 0.000000e+00 0.000000e+00
    endloop
  endfacet
  facet normal -0.000000e+00 0.000000e+00 1.000000e+00
    outer loop
      vertex   6.850000e+00 0.000000e+00 0.000000e+00
      vertex   8.600000e+00 -2.000000e+00 0.000000e+00
      vertex   8.600000e+00 0.000000e+00 0.000000e+00
    endloop
  endfacet
  facet normal 0.000000e+00 0.000000e+00 1.000000e+00
    outer loop
      vertex   8.600000e+00 -3.775000e+01 0.000000e+00
      vertex   6.850000e+00 -3.540000e+01 0.000000e+00
      vertex   3.000000e+00 -3.775000e+01 0.000000e+00
    endloop
  endfacet
  facet normal 0.000000e+00 0.000000e+00 1.000000e+00
    outer loop
      vertex   3.000000e+00 -3.775000e+01 0.000000e+00
      vertex   6.850000e+00 -3.540000e+01 0.000000e+00
      vertex   4.750000e+00 -3.540000e+01 0.000000e+00
    endloop
  endfacet
  facet normal 0.000000e+00 0.000000e+00 1.000000e+00
    outer loop
      vertex   3.000000e+00 -3.775000e+01 0.000000e+00
      vertex   4.750000e+00 -3.540000e+01 0.000000e+00
      vertex   4.750000e+00 -2.530000e+01 0.000000e+00
    endloop
  endfacet
  facet normal 0.000000e+00 0.000000e+00 1.000000e+00
    outer loop
      vertex   6.850000e+00 -2.530000e+01 0.000000e+00
      vertex   4.750000e+00 -1.050000e+01 0.000000e+00
      vertex   4.750000e+00 -2.530000e+01 0.000000e+00
    endloop
  endfacet
  facet normal 0.000000e+00 -0.000000e+00 1.000000e+00
    outer loop
      vertex   4.750000e+00 -2.530000e+01 0.000000e+00
      vertex   4.750000e+00 -1.050000e+01 0.000000e+00
      vertex   3.000000e+00 0.000000e+00 0.000000e+00
    endloop
  endfacet
  facet normal 0.000000e+00 0.000000e+00 1.000000e+00
    outer loop
      vertex   4.750000e+00 -2.530000e+01 0.000000e+00
      vertex   3.000000e+00 0.000000e+00 0.000000e+00
      vertex   3.000000e+00 -3.775000e+01 0.000000e+00
    endloop
  endfacet
  facet normal 0.000000e+00 0.000000e+00 1.000000e+00
    outer loop
      vertex   6.850000e+00 -1.050000e+01 0.000000e+00
      vertex   4.750000e+00 -1.050000e+01 0.000000e+00
      vertex   6.850000e+00 -2.530000e+01 0.000000e+00
    endloop
  endfacet
  facet normal 0.000000e+00 -0.000000e+00 1.000000e+00
    outer loop
      vertex   4.750000e+00 -1.050000e+01 0.000000e+00
      vertex   4.750000e+00 0.000000e+00 0.000000e+00
      vertex   3.000000e+00 0.000000e+00 0.000000e+00
    endloop
  endfacet
  facet normal 0.000000e+00 -1.000000e+00 0.000000e+00
    outer loop
      vertex   8.600000e+00 -2.000000e+00 -3.750000e+00
      vertex   1.660000e+01 -2.000000e+00 -3.750000e+00
      vertex   8.600000e+00 -2.000000e+00 0.000000e+00
    endloop
  endfacet
  facet normal 0.000000e+00 -1.000000e+00 0.000000e+00
    outer loop
      vertex   8.600000e+00 -2.000000e+00 0.000000e+00
      vertex   1.660000e+01 -2.000000e+00 -3.750000e+00
      vertex   1.660000e+01 -2.000000e+00 1.850000e+01
    endloop
  endfacet
  facet normal 0.000000e+00 -1.000000e+00 0.000000e+00
    outer loop
      vertex   8.600000e+00 -2.000000e+00 0.000000e+00
      vertex   1.660000e+01 -2.000000e+00 1.850000e+01
      vertex   8.600000e+00 -2.000000e+00 1.850000e+01
    endloop
  endfacet
  facet normal 1.000000e+00 1.250447e-09 0.000000e+00
    outer loop
      vertex   8.600000e+00 -2.000000e+00 0.000000e+00
      vertex   8.600000e+00 -3.775000e+01 0.000000e+00
      vertex   8.600000e+00 -2.000000e+00 -3.750000e+00
    endloop
  endfacet
  facet normal 1.000000e+00 1.250447e-09 0.000000e+00
    outer loop
      vertex   8.600000e+00 -2.000000e+00 -3.750000e+00
      vertex   8.600000e+00 -3.775000e+01 0.000000e+00
      vertex   8.600000e+00 -3.775000e+01 -3.750000e+00
    endloop
  endfacet
  facet normal 0.000000e+00 0.000000e+00 -1.000000e+00
    outer loop
      vertex   6.850000e+00 0.000000e+00 1.600000e+01
      vertex   4.750000e+00 0.000000e+00 1.600000e+01
      vertex   6.850000e+00 7.500000e+00 1.600000e+01
    endloop
  endfacet
  facet normal -0.000000e+00 0.000000e+00 -1.000000e+00
    outer loop
      vertex   6.850000e+00 7.500000e+00 1.600000e+01
      vertex   4.750000e+00 0.000000e+00 1.600000e+01
      vertex   4.750000e+00 7.500000e+00 1.600000e+01
    endloop
  endfacet
  facet normal 5.234600e-08 -1.000000e+00 3.664220e-08
    outer loop
      vertex   4.750000e+00 0.000000e+00 1.600000e+01
      vertex   3.000000e+00 0.000000e+00 1.850000e+01
      vertex   4.750000e+00 -2.235174e-07 9.900000e+00
    endloop
  endfacet
  facet normal -1.277242e-07 -1.000000e+00 -2.043998e-25
    outer loop
      vertex   4.750000e+00 -2.235174e-07 9.900000e+00
      vertex   3.000000e+00 0.000000e+00 1.850000e+01
      vertex   3.000000e+00 0.000000e+00 0.000000e+00
    endloop
  endfacet
  facet normal -4.583512e-24 -1.000000e+00 -2.257752e-08
    outer loop
      vertex   4.750000e+00 -2.235174e-07 9.900000e+00
      vertex   3.000000e+00 0.000000e+00 0.000000e+00
      vertex   4.750000e+00 0.000000e+00 0.000000e+00
    endloop
  endfacet
  facet normal 0.000000e+00 -1.000000e+00 0.000000e+00
    outer loop
      vertex   4.750000e+00 0.000000e+00 1.600000e+01
      vertex   6.850000e+00 0.000000e+00 1.600000e+01
      vertex   3.000000e+00 0.000000e+00 1.850000e+01
    endloop
  endfacet
  facet normal 0.000000e+00 -1.000000e+00 0.000000e+00
    outer loop
      vertex   3.000000e+00 0.000000e+00 1.850000e+01
      vertex   6.850000e+00 0.000000e+00 1.600000e+01
      vertex   8.600000e+00 0.000000e+00 1.850000e+01
    endloop
  endfacet
  facet normal -5.234600e-08 -1.000000e+00 3.664220e-08
    outer loop
      vertex   8.600000e+00 0.000000e+00 1.850000e+01
      vertex   6.850000e+00 0.000000e+00 1.600000e+01
      vertex   6.850000e+00 -2.235174e-07 9.900000e+00
    endloop
  endfacet
  facet normal 1.277242e-07 -1.000000e+00 0.000000e+00
    outer loop
      vertex   8.600000e+00 0.000000e+00 1.850000e+01
      vertex   6.850000e+00 -2.235174e-07 9.900000e+00
      vertex   8.600000e+00 0.000000e+00 0.000000e+00
    endloop
  endfacet
  facet normal -0.000000e+00 -1.000000e+00 -2.257752e-08
    outer loop
      vertex   8.600000e+00 0.000000e+00 0.000000e+00
      vertex   6.850000e+00 -2.235174e-07 9.900000e+00
      vertex   6.850000e+00 0.000000e+00 0.000000e+00
    endloop
  endfacet
  facet normal -3.819593e-24 -1.000000e+00 -2.257752e-08
    outer loop
      vertex   6.850000e+00 0.000000e+00 0.000000e+00
      vertex   6.850000e+00 -2.235174e-07 9.900000e+00
      vertex   4.750000e+00 -2.235174e-07 9.900000e+00
    endloop
  endfacet
  facet normal -0.000000e+00 -1.000000e+00 -2.257752e-08
    outer loop
      vertex   6.850000e+00 0.000000e+00 0.000000e+00
      vertex   4.750000e+00 -2.235174e-07 9.900000e+00
      vertex   4.750000e+00 0.000000e+00 0.000000e+00
    endloop
  endfacet
  facet normal 0.000000e+00 -1.000000e+00 5.960464e-08
    outer loop
      vertex   4.750000e+00 -2.235174e-07 -3.750000e+00
      vertex   6.850000e+00 -2.235174e-07 -3.750000e+00
      vertex   4.750000e+00 0.000000e+00 0.000000e+00
    endloop
  endfacet
  facet normal 0.000000e+00 -1.000000e+00 5.960464e-08
    outer loop
      vertex   4.750000e+00 0.000000e+00 0.000000e+00
      vertex   6.850000e+00 -2.235174e-07 -3.750000e+00
      vertex   6.850000e+00 0.000000e+00 0.000000e+00
    endloop
  endfacet
  facet normal -0.000000e+00 1.000000e+00 0.000000e+00
    outer loop
      vertex   4.750000e+00 -1.050000e+01 0.000000e+00
      vertex   6.850000e+00 -1.050000e+01 0.000000e+00
      vertex   4.750000e+00 -1.050000e+01 -3.750000e+00
    endloop
  endfacet
  facet normal 0.000000e+00 1.000000e+00 0.000000e+00
    outer loop
      vertex   4.750000e+00 -1.050000e+01 -3.750000e+00
      vertex   6.850000e+00 -1.050000e+01 0.000000e+00
      vertex   6.850000e+00 -1.050000e+01 -3.750000e+00
    endloop
  endfacet
  facet normal -1.000000e+00 0.000000e+00 0.000000e+00
    outer loop
      vertex   6.850000e+00 -2.235174e-07 9.900000e+00
      vertex   6.850000e+00 0.000000e+00 1.600000e+01
      vertex   6.850000e+00 7.500000e+00 9.900000e+00
    endloop
  endfacet
  facet normal -1.000000e+00 0.000000e+00 0.000000e+00
    outer loop
      vertex   6.850000e+00 7.500000e+00 9.900000e+00
      vertex   6.850000e+00 0.000000e+00 1.600000e+01
      vertex   6.850000e+00 7.500000e+00 1.600000e+01
    endloop
  endfacet
  facet normal 0.000000e+00 -1.000000e+00 6.107033e-08
    outer loop
      vertex   6.850000e+00 7.500000e+00 1.600000e+01
      vertex   4.750000e+00 7.500000e+00 1.600000e+01
      vertex   6.850000e+00 7.500000e+00 9.900000e+00
    endloop
  endfacet
  facet normal 0.000000e+00 -1.000000e+00 6.107033e-08
    outer loop
      vertex   6.850000e+00 7.500000e+00 9.900000e+00
      vertex   4.750000e+00 7.500000e+00 1.600000e+01
      vertex   4.750000e+00 7.500000e+00 9.900000e+00
    endloop
  endfacet
  facet normal -1.000000e+00 0.000000e+00 0.000000e+00
    outer loop
      vertex   6.850000e+00 -3.540000e+01 0.000000e+00
      vertex   6.850000e+00 -2.530000e+01 0.000000e+00
      vertex   6.850000e+00 -3.540000e+01 -3.750000e+00
    endloop
  endfacet
  facet normal -1.000000e+00 0.000000e+00 0.000000e+00
    outer loop
      vertex   6.850000e+00 -3.540000e+01 -3.750000e+00
      vertex   6.850000e+00 -2.530000e+01 0.000000e+00
      vertex   6.850000e+00 -2.530000e+01 -3.750000e+00
    endloop
  endfacet
  facet normal -0.000000e+00 -1.000000e+00 -0.000000e+00
    outer loop
      vertex   6.850000e+00 -2.530000e+01 0.000000e+00
      vertex   4.750000e+00 -2.530000e+01 0.000000e+00
      vertex   6.850000e+00 -2.530000e+01 -3.750000e+00
    endloop
  endfacet
  facet normal 0.000000e+00 -1.000000e+00 0.000000e+00
    outer loop
      vertex   6.850000e+00 -2.530000e+01 -3.750000e+00
      vertex   4.750000e+00 -2.530000e+01 0.000000e+00
      vertex   4.750000e+00 -2.530000e+01 -3.750000e+00
    endloop
  endfacet
  facet normal 1.000000e+00 0.000000e+00 2.368476e-16
    outer loop
      vertex   4.750000e+00 -2.530000e+01 0.000000e+00
      vertex   4.750000e+00 -3.540000e+01 0.000000e+00
      vertex   4.750000e+00 -2.530000e+01 -3.750000e+00
    endloop
  endfacet
  facet normal 1.000000e+00 0.000000e+00 2.368476e-16
    outer loop
      vertex   4.750000e+00 -2.530000e+01 -3.750000e+00
      vertex   4.750000e+00 -3.540000e+01 0.000000e+00
      vertex   4.750000e+00 -3.540000e+01 -3.750000e+00
    endloop
  endfacet
  facet normal -0.000000e+00 1.000000e+00 0.000000e+00
    outer loop
      vertex   4.750000e+00 -3.540000e+01 0.000000e+00
      vertex   6.850000e+00 -3.540000e+01 0.000000e+00
      vertex   4.750000e+00 -3.540000e+01 -3.750000e+00
    endloop
  endfacet
  facet normal 0.000000e+00 1.000000e+00 0.000000e+00
    outer loop
      vertex   4.750000e+00 -3.540000e+01 -3.750000e+00
      vertex   6.850000e+00 -3.540000e+01 0.000000e+00
      vertex   6.850000e+00 -3.540000e+01 -3.750000e+00
    endloop
  endfacet
  facet normal -0.000000e+00 -1.000000e+00 -0.000000e+00
    outer loop
      vertex   8.600000e+00 -3.775000e+01 0.000000e+00
      vertex   3.000000e+00 -3.775000e+01 0.000000e+00
      vertex   8.600000e+00 -3.775000e+01 -3.750000e+00
    endloop
  endfacet
  facet normal 0.000000e+00 -1.000000e+00 0.000000e+00
    outer loop
      vertex   8.600000e+00 -3.775000e+01 -3.750000e+00
      vertex   3.000000e+00 -3.775000e+01 0.000000e+00
      vertex   3.000000e+00 -3.775000e+01 -3.750000e+00
    endloop
  endfacet
  facet normal -1.000000e+00 -1.184198e-09 -0.000000e+00
    outer loop
      vertex   3.000000e+00 -3.775000e+01 0.000000e+00
      vertex   3.000000e+00 0.000000e+00 0.000000e+00
      vertex   3.000000e+00 -3.775000e+01 -3.750000e+00
    endloop
  endfacet
  facet normal -1.000000e+00 -1.184198e-09 1.402372e-25
    outer loop
      vertex   3.000000e+00 -3.775000e+01 -3.750000e+00
      vertex   3.000000e+00 0.000000e+00 0.000000e+00
      vertex   3.000000e+00 0.000000e+00 -3.750000e+00
    endloop
  endfacet
  facet normal -1.000000e+00 0.000000e+00 -0.000000e+00
    outer loop
      vertex   0.000000e+00 5.000000e+00 1.850000e+01
      vertex   0.000000e+00 1.000000e+01 1.850000e+01
      vertex   0.000000e+00 5.000000e+00 -3.750000e+00
    endloop
  endfacet
  facet normal -1.000000e+00 0.000000e+00 0.000000e+00
    outer loop
      vertex   0.000000e+00 5.000000e+00 -3.750000e+00
      vertex   0.000000e+00 1.000000e+01 1.850000e+01
      vertex   0.000000e+00 1.000000e+01 -3.750000e+00
    endloop
  endfacet
  facet normal -8.574929e-01 -5.144958e-01 -0.000000e+00
    outer loop
      vertex   3.000000e+00 0.000000e+00 1.850000e+01
      vertex   0.000000e+00 5.000000e+00 1.850000e+01
      vertex   3.000000e+00 0.000000e+00 0.000000e+00
    endloop
  endfacet
  facet normal -8.574929e-01 -5.144958e-01 1.711476e-17
    outer loop
      vertex   3.000000e+00 0.000000e+00 0.000000e+00
      vertex   0.000000e+00 5.000000e+00 1.850000e+01
      vertex   0.000000e+00 5.000000e+00 -3.750000e+00
    endloop
  endfacet
  facet normal -8.574929e-01 -5.144958e-01 -0.000000e+00
    outer loop
      vertex   3.000000e+00 0.000000e+00 0.000000e+00
      vertex   0.000000e+00 5.000000e+00 -3.750000e+00
      vertex   3.000000e+00 0.000000e+00 -3.750000e+00
    endloop
  endfacet
  facet normal -0.000000e+00 1.000000e+00 0.000000e+00
    outer loop
      vertex   0.000000e+00 1.000000e+01 1.850000e+01
      vertex   1.000000e+01 1.000000e+01 1.850000e+01
      vertex   0.000000e+00 1.000000e+01 -3.750000e+00
    endloop
  endfacet
  facet normal 0.000000e+00 1.000000e+00 0.000000e+00
    outer loop
      vertex   0.000000e+00 1.000000e+01 -3.750000e+00
      vertex   1.000000e+01 1.000000e+01 1.850000e+01
      vertex   1.000000e+01 1.000000e+01 -3.750000e+00
    endloop
  endfacet
  facet normal 9.874406e-01 1.579905e-01 0.000000e+00
    outer loop
      vertex   1.000000e+01 1.000000e+01 1.850000e+01
      vertex   1.160000e+01 0.000000e+00 1.850000e+01
      vertex   1.000000e+01 1.000000e+01 -3.750000e+00
    endloop
  endfacet
  facet normal 9.874406e-01 1.579905e-01 0.000000e+00
    outer loop
      vertex   1.000000e+01 1.000000e+01 -3.750000e+00
      vertex   1.160000e+01 0.000000e+00 1.850000e+01
      vertex   1.160000e+01 0.000000e+00 -3.750000e+00
    endloop
  endfacet
endsolid
