solid ASCII
  facet normal 0.000000e+00 7.071068e-01 -7.071068e-01
    outer loop
      vertex   -5.820000e+00 -2.500000e+00 0.000000e+00
      vertex   -5.820000e+00 -3.725290e-08 2.500000e+00
      vertex   2.600000e-01 -2.500000e+00 0.000000e+00
    endloop
  endfacet
  facet normal 1.291195e-17 7.071068e-01 -7.071068e-01
    outer loop
      vertex   2.600000e-01 -2.500000e+00 0.000000e+00
      vertex   -5.820000e+00 -3.725290e-08 2.500000e+00
      vertex   2.600000e-01 -3.725290e-08 2.500000e+00
    endloop
  endfacet
  facet normal -1.000000e+00 4.470348e-09 0.000000e+00
    outer loop
      vertex   -5.820000e+00 -3.725290e-08 2.175000e+01
      vertex   -5.820000e+00 -3.725290e-08 2.500000e+00
      vertex   -5.820000e+00 -1.000000e+01 3.750000e+00
    endloop
  endfacet
  facet normal -1.000000e+00 5.960465e-09 1.192093e-08
    outer loop
      vertex   -5.820000e+00 -1.000000e+01 3.750000e+00
      vertex   -5.820000e+00 -3.725290e-08 2.500000e+00
      vertex   -5.820000e+00 -2.500000e+00 0.000000e+00
    endloop
  endfacet
  facet normal -1.000000e+00 -9.879223e-10 -1.975844e-09
    outer loop
      vertex   -5.820000e+00 -1.000000e+01 3.750000e+00
      vertex   -5.820000e+00 -2.500000e+00 0.000000e+00
      vertex   -5.820000e+00 -4.775000e+01 0.000000e+00
    endloop
  endfacet
  facet normal -1.000000e+00 -1.184198e-09 0.000000e+00
    outer loop
      vertex   -5.820000e+00 -4.775000e+01 0.000000e+00
      vertex   -5.820000e+00 -4.775000e+01 3.750000e+00
      vertex   -5.820000e+00 -1.000000e+01 3.750000e+00
    endloop
  endfacet
  facet normal -1.000000e+00 4.470348e-09 -4.411630e-25
    outer loop
      vertex   -5.820000e+00 -1.000000e+01 3.750000e+00
      vertex   -5.820000e+00 -1.000000e+01 2.175000e+01
      vertex   -5.820000e+00 -3.725290e-08 2.175000e+01
    endloop
  endfacet
  facet normal -0.000000e+00 0.000000e+00 -1.000000e+00
    outer loop
      vertex   -1.750000e+00 -2.050000e+01 -5.551115e-16
      vertex   -3.850000e+00 -3.530000e+01 -5.551115e-16
      vertex   -3.850000e+00 -2.050000e+01 -5.551115e-16
    endloop
  endfacet
  facet normal -2.817825e-16 -0.000000e+00 -1.000000e+00
    outer loop
      vertex   -3.850000e+00 -2.050000e+01 -5.551115e-16
      vertex   -3.850000e+00 -3.530000e+01 -5.551115e-16
      vertex   -5.820000e+00 -4.775000e+01 0.000000e+00
    endloop
  endfacet
  facet normal -2.817825e-16 -2.783792e-25 -1.000000e+00
    outer loop
      vertex   -3.850000e+00 -2.050000e+01 -5.551115e-16
      vertex   -5.820000e+00 -4.775000e+01 0.000000e+00
      vertex   -5.820000e+00 -2.500000e+00 0.000000e+00
    endloop
  endfacet
  facet normal 2.761749e-16 0.000000e+00 -1.000000e+00
    outer loop
      vertex   -1.750000e+00 -1.000000e+01 -5.551115e-16
      vertex   2.600000e-01 -2.500000e+00 0.000000e+00
      vertex   -1.750000e+00 -2.050000e+01 -5.551115e-16
    endloop
  endfacet
  facet normal 2.761749e-16 9.757494e-33 -1.000000e+00
    outer loop
      vertex   -1.750000e+00 -2.050000e+01 -5.551115e-16
      vertex   2.600000e-01 -2.500000e+00 0.000000e+00
      vertex   2.600000e-01 -4.775000e+01 0.000000e+00
    endloop
  endfacet
  facet normal 2.761749e-16 0.000000e+00 -1.000000e+00
    outer loop
      vertex   -1.750000e+00 -2.050000e+01 -5.551115e-16
      vertex   2.600000e-01 -4.775000e+01 0.000000e+00
      vertex   -1.750000e+00 -3.530000e+01 -5.551115e-16
    endloop
  endfacet
  facet normal 2.761749e-16 0.000000e+00 -1.000000e+00
    outer loop
      vertex   -1.750000e+00 -3.530000e+01 -5.551115e-16
      vertex   2.600000e-01 -4.775000e+01 0.000000e+00
      vertex   -1.750000e+00 -4.540000e+01 -5.551115e-16
    endloop
  endfacet
  facet normal 0.000000e+00 -2.362176e-16 -1.000000e+00
    outer loop
      vertex   -1.750000e+00 -4.540000e+01 -5.551115e-16
      vertex   2.600000e-01 -4.775000e+01 0.000000e+00
      vertex   -5.820000e+00 -4.775000e+01 0.000000e+00
    endloop
  endfacet
  facet normal -0.000000e+00 -2.362176e-16 -1.000000e+00
    outer loop
      vertex   -1.750000e+00 -4.540000e+01 -5.551115e-16
      vertex   -5.820000e+00 -4.775000e+01 0.000000e+00
      vertex   -3.850000e+00 -4.540000e+01 -5.551115e-16
    endloop
  endfacet
  facet normal -2.817825e-16 0.000000e+00 -1.000000e+00
    outer loop
      vertex   -3.850000e+00 -4.540000e+01 -5.551115e-16
      vertex   -5.820000e+00 -4.775000e+01 0.000000e+00
      vertex   -3.850000e+00 -3.530000e+01 -5.551115e-16
    endloop
  endfacet
  facet normal 0.000000e+00 7.401487e-17 -1.000000e+00
    outer loop
      vertex   2.600000e-01 -2.500000e+00 0.000000e+00
      vertex   -1.750000e+00 -1.000000e+01 -5.551115e-16
      vertex   -5.820000e+00 -2.500000e+00 0.000000e+00
    endloop
  endfacet
  facet normal 0.000000e+00 7.401487e-17 -1.000000e+00
    outer loop
      vertex   -5.820000e+00 -2.500000e+00 0.000000e+00
      vertex   -1.750000e+00 -1.000000e+01 -5.551115e-16
      vertex   -3.850000e+00 -1.000000e+01 -5.551115e-16
    endloop
  endfacet
  facet normal -2.817825e-16 -2.383554e-33 -1.000000e+00
    outer loop
      vertex   -5.820000e+00 -2.500000e+00 0.000000e+00
      vertex   -3.850000e+00 -1.000000e+01 -5.551115e-16
      vertex   -3.850000e+00 -2.050000e+01 -5.551115e-16
    endloop
  endfacet
  facet normal 0.000000e+00 0.000000e+00 -1.000000e+00
    outer loop
      vertex   -1.750000e+00 -3.530000e+01 -5.551115e-16
      vertex   -3.850000e+00 -3.530000e+01 -5.551115e-16
      vertex   -1.750000e+00 -2.050000e+01 -5.551115e-16
    endloop
  endfacet
  facet normal 5.000000e-01 -6.123724e-01 6.123724e-01
    outer loop
      vertex   -2.781089e+00 -3.282486e+00 2.175000e+01
      vertex   2.500000e-01 -8.076118e-01 2.175000e+01
      vertex   -2.781089e+00 4.495689e+00 2.952817e+01
    endloop
  endfacet
  facet normal 5.000000e-01 -6.123724e-01 6.123724e-01
    outer loop
      vertex   -2.781089e+00 4.495689e+00 2.952817e+01
      vertex   2.500000e-01 -8.076118e-01 2.175000e+01
      vertex   2.500000e-01 5.733126e+00 2.829074e+01
    endloop
  endfacet
  facet normal 1.000000e+00 0.000000e+00 0.000000e+00
    outer loop
      vertex   2.500000e-01 -8.076118e-01 2.175000e+01
      vertex   2.500000e-01 -3.725290e-08 2.175000e+01
      vertex   2.500000e-01 5.733126e+00 2.829074e+01
    endloop
  endfacet
  facet normal 1.000000e+00 -2.390576e-16 2.095402e-16
    outer loop
      vertex   2.500000e-01 5.733126e+00 2.829074e+01
      vertex   2.500000e-01 -3.725290e-08 2.175000e+01
      vertex   2.500000e-01 8.208000e+00 2.581586e+01
    endloop
  endfacet
  facet normal 1.000000e+00 -2.680315e-16 2.680315e-16
    outer loop
      vertex   2.500000e-01 8.208000e+00 2.581586e+01
      vertex   2.500000e-01 -3.725290e-08 2.175000e+01
      vertex   2.500000e-01 1.110223e-15 1.760786e+01
    endloop
  endfacet
  facet normal 5.000000e-01 6.123724e-01 -6.123724e-01
    outer loop
      vertex   -2.781089e+00 1.110223e-15 1.513299e+01
      vertex   -2.781089e+00 9.445436e+00 2.457843e+01
      vertex   2.500000e-01 1.110223e-15 1.760786e+01
    endloop
  endfacet
  facet normal 5.000000e-01 6.123724e-01 -6.123724e-01
    outer loop
      vertex   2.500000e-01 1.110223e-15 1.760786e+01
      vertex   -2.781089e+00 9.445436e+00 2.457843e+01
      vertex   2.500000e-01 8.208000e+00 2.581586e+01
    endloop
  endfacet
  facet normal -5.000000e-01 6.123724e-01 -6.123724e-01
    outer loop
      vertex   -2.781089e+00 1.110223e-15 1.513299e+01
      vertex   -5.812178e+00 1.110223e-15 1.760786e+01
      vertex   -2.781089e+00 9.445436e+00 2.457843e+01
    endloop
  endfacet
  facet normal -5.000000e-01 6.123724e-01 -6.123724e-01
    outer loop
      vertex   -2.781089e+00 9.445436e+00 2.457843e+01
      vertex   -5.812178e+00 1.110223e-15 1.760786e+01
      vertex   -5.812178e+00 8.208000e+00 2.581586e+01
    endloop
  endfacet
  facet normal -1.000000e+00 0.000000e+00 0.000000e+00
    outer loop
      vertex   -5.812178e+00 -8.076118e-01 2.175000e+01
      vertex   -5.812178e+00 5.733126e+00 2.829074e+01
      vertex   -5.812178e+00 -3.725290e-08 2.175000e+01
    endloop
  endfacet
  facet normal -1.000000e+00 1.912461e-16 -1.676322e-16
    outer loop
      vertex   -5.812178e+00 -3.725290e-08 2.175000e+01
      vertex   -5.812178e+00 5.733126e+00 2.829074e+01
      vertex   -5.812178e+00 8.208000e+00 2.581586e+01
    endloop
  endfacet
  facet normal -1.000000e+00 2.144252e-16 -2.144252e-16
    outer loop
      vertex   -5.812178e+00 -3.725290e-08 2.175000e+01
      vertex   -5.812178e+00 8.208000e+00 2.581586e+01
      vertex   -5.812178e+00 1.110223e-15 1.760786e+01
    endloop
  endfacet
  facet normal -5.000000e-01 -6.123724e-01 6.123724e-01
    outer loop
      vertex   -2.781089e+00 -3.282486e+00 2.175000e+01
      vertex   -2.781089e+00 4.495689e+00 2.952817e+01
      vertex   -5.812178e+00 -8.076118e-01 2.175000e+01
    endloop
  endfacet
  facet normal -5.000000e-01 -6.123724e-01 6.123724e-01
    outer loop
      vertex   -5.812178e+00 -8.076118e-01 2.175000e+01
      vertex   -2.781089e+00 4.495689e+00 2.952817e+01
      vertex   -5.812178e+00 5.733126e+00 2.829074e+01
    endloop
  endfacet
  facet normal 1.025145e-15 7.071068e-01 7.071068e-01
    outer loop
      vertex   2.500000e-01 8.208000e+00 2.581586e+01
      vertex   -2.781089e+00 9.445436e+00 2.457843e+01
      vertex   2.500000e-01 5.733126e+00 2.829074e+01
    endloop
  endfacet
  facet normal -3.801989e-16 7.071068e-01 7.071068e-01
    outer loop
      vertex   2.500000e-01 5.733126e+00 2.829074e+01
      vertex   -2.781089e+00 9.445436e+00 2.457843e+01
      vertex   -2.781089e+00 4.495689e+00 2.952817e+01
    endloop
  endfacet
  facet normal -1.729206e-16 7.071068e-01 7.071068e-01
    outer loop
      vertex   -2.781089e+00 4.495689e+00 2.952817e+01
      vertex   -2.781089e+00 9.445436e+00 2.457843e+01
      vertex   -5.812178e+00 8.208000e+00 2.581586e+01
    endloop
  endfacet
  facet normal 6.610057e-16 7.071068e-01 7.071068e-01
    outer loop
      vertex   -2.781089e+00 4.495689e+00 2.952817e+01
      vertex   -5.812178e+00 8.208000e+00 2.581586e+01
      vertex   -5.812178e+00 5.733126e+00 2.829074e+01
    endloop
  endfacet
  facet normal 0.000000e+00 1.000000e+00 -2.948859e-09
    outer loop
      vertex   -5.820000e+00 -3.725290e-08 2.500000e+00
      vertex   -2.781089e+00 1.110223e-15 1.513299e+01
      vertex   2.600000e-01 -3.725290e-08 2.500000e+00
    endloop
  endfacet
  facet normal 2.012226e-09 1.000000e+00 -2.464464e-09
    outer loop
      vertex   2.600000e-01 -3.725290e-08 2.500000e+00
      vertex   -2.781089e+00 1.110223e-15 1.513299e+01
      vertex   2.500000e-01 1.110223e-15 1.760786e+01
    endloop
  endfacet
  facet normal 3.725290e-06 1.000000e+00 -0.000000e+00
    outer loop
      vertex   2.600000e-01 -3.725290e-08 2.500000e+00
      vertex   2.500000e-01 1.110223e-15 1.760786e+01
      vertex   2.600000e-01 -3.725290e-08 2.175000e+01
    endloop
  endfacet
  facet normal 0.000000e+00 1.000000e+00 8.993647e-09
    outer loop
      vertex   2.600000e-01 -3.725290e-08 2.175000e+01
      vertex   2.500000e-01 1.110223e-15 1.760786e+01
      vertex   2.500000e-01 -3.725290e-08 2.175000e+01
    endloop
  endfacet
  facet normal -2.012463e-09 1.000000e+00 -2.464754e-09
    outer loop
      vertex   -2.781089e+00 1.110223e-15 1.513299e+01
      vertex   -5.820000e+00 -3.725290e-08 2.500000e+00
      vertex   -5.812178e+00 1.110223e-15 1.760786e+01
    endloop
  endfacet
  facet normal -4.762475e-06 1.000000e+00 7.703841e-27
    outer loop
      vertex   -5.812178e+00 1.110223e-15 1.760786e+01
      vertex   -5.820000e+00 -3.725290e-08 2.500000e+00
      vertex   -5.820000e+00 -3.725290e-08 2.175000e+01
    endloop
  endfacet
  facet normal -1.238277e-22 1.000000e+00 8.993647e-09
    outer loop
      vertex   -5.812178e+00 1.110223e-15 1.760786e+01
      vertex   -5.820000e+00 -3.725290e-08 2.175000e+01
      vertex   -5.812178e+00 -3.725290e-08 2.175000e+01
    endloop
  endfacet
  facet normal 1.000000e+00 4.416357e-17 1.192093e-08
    outer loop
      vertex   2.600000e-01 -4.775000e+01 0.000000e+00
      vertex   2.600000e-01 -2.500000e+00 0.000000e+00
      vertex   2.600000e-01 -1.000000e+01 3.750000e+00
    endloop
  endfacet
  facet normal 1.000000e+00 -3.973643e-09 3.973642e-09
    outer loop
      vertex   2.600000e-01 -1.000000e+01 3.750000e+00
      vertex   2.600000e-01 -2.500000e+00 0.000000e+00
      vertex   2.600000e-01 -3.725290e-08 2.500000e+00
    endloop
  endfacet
  facet normal 1.000000e+00 -4.470348e-09 8.594084e-26
    outer loop
      vertex   2.600000e-01 -1.000000e+01 3.750000e+00
      vertex   2.600000e-01 -3.725290e-08 2.500000e+00
      vertex   2.600000e-01 -3.725290e-08 2.175000e+01
    endloop
  endfacet
  facet normal 1.000000e+00 -4.470348e-09 3.860176e-25
    outer loop
      vertex   2.600000e-01 -3.725290e-08 2.175000e+01
      vertex   2.600000e-01 -1.000000e+01 2.175000e+01
      vertex   2.600000e-01 -1.000000e+01 3.750000e+00
    endloop
  endfacet
  facet normal 1.000000e+00 1.184198e-09 -6.076947e-25
    outer loop
      vertex   2.600000e-01 -1.000000e+01 3.750000e+00
      vertex   2.600000e-01 -4.775000e+01 3.750000e+00
      vertex   2.600000e-01 -4.775000e+01 0.000000e+00
    endloop
  endfacet
  facet normal 0.000000e+00 0.000000e+00 1.000000e+00
    outer loop
      vertex   -5.812178e+00 -3.725290e-08 2.175000e+01
      vertex   -5.820000e+00 -3.725290e-08 2.175000e+01
      vertex   -5.812178e+00 -8.076118e-01 2.175000e+01
    endloop
  endfacet
  facet normal 0.000000e+00 0.000000e+00 1.000000e+00
    outer loop
      vertex   -5.812178e+00 -8.076118e-01 2.175000e+01
      vertex   -5.820000e+00 -3.725290e-08 2.175000e+01
      vertex   -5.820000e+00 -1.000000e+01 2.175000e+01
    endloop
  endfacet
  facet normal 0.000000e+00 0.000000e+00 1.000000e+00
    outer loop
      vertex   -5.812178e+00 -8.076118e-01 2.175000e+01
      vertex   -5.820000e+00 -1.000000e+01 2.175000e+01
      vertex   -2.781089e+00 -3.282486e+00 2.175000e+01
    endloop
  endfacet
  facet normal 0.000000e+00 0.000000e+00 1.000000e+00
    outer loop
      vertex   -2.781089e+00 -3.282486e+00 2.175000e+01
      vertex   -5.820000e+00 -1.000000e+01 2.175000e+01
      vertex   2.600000e-01 -1.000000e+01 2.175000e+01
    endloop
  endfacet
  facet normal -0.000000e+00 0.000000e+00 1.000000e+00
    outer loop
      vertex   -2.781089e+00 -3.282486e+00 2.175000e+01
      vertex   2.600000e-01 -1.000000e+01 2.175000e+01
      vertex   2.500000e-01 -8.076118e-01 2.175000e+01
    endloop
  endfacet
  facet normal -0.000000e+00 0.000000e+00 1.000000e+00
    outer loop
      vertex   2.500000e-01 -8.076118e-01 2.175000e+01
      vertex   2.600000e-01 -1.000000e+01 2.175000e+01
      vertex   2.600000e-01 -3.725290e-08 2.175000e+01
    endloop
  endfacet
  facet normal 0.000000e+00 0.000000e+00 1.000000e+00
    outer loop
      vertex   2.500000e-01 -8.076118e-01 2.175000e+01
      vertex   2.600000e-01 -3.725290e-08 2.175000e+01
      vertex   2.500000e-01 -3.725290e-08 2.175000e+01
    endloop
  endfacet
  facet normal 0.000000e+00 -1.000000e+00 8.881784e-16
    outer loop
      vertex   -5.820000e+00 -1.000000e+01 2.175000e+01
      vertex   -1.750000e+00 -1.000000e+01 1.975000e+01
      vertex   2.600000e-01 -1.000000e+01 2.175000e+01
    endloop
  endfacet
  facet normal -3.645990e-08 -1.000000e+00 3.664220e-08
    outer loop
      vertex   2.600000e-01 -1.000000e+01 2.175000e+01
      vertex   -1.750000e+00 -1.000000e+01 1.975000e+01
      vertex   -1.750000e+00 -1.000000e+01 1.365000e+01
    endloop
  endfacet
  facet normal 1.112027e-07 -1.000000e+00 9.868649e-17
    outer loop
      vertex   2.600000e-01 -1.000000e+01 2.175000e+01
      vertex   -1.750000e+00 -1.000000e+01 1.365000e+01
      vertex   2.600000e-01 -1.000000e+01 3.750000e+00
    endloop
  endfacet
  facet normal -0.000000e+00 -1.000000e+00 -2.257752e-08
    outer loop
      vertex   2.600000e-01 -1.000000e+01 3.750000e+00
      vertex   -1.750000e+00 -1.000000e+01 1.365000e+01
      vertex   -1.750000e+00 -1.000000e+01 3.750000e+00
    endloop
  endfacet
  facet normal -3.819593e-24 -1.000000e+00 -2.257752e-08
    outer loop
      vertex   -1.750000e+00 -1.000000e+01 3.750000e+00
      vertex   -1.750000e+00 -1.000000e+01 1.365000e+01
      vertex   -3.850000e+00 -1.000000e+01 1.365000e+01
    endloop
  endfacet
  facet normal -0.000000e+00 -1.000000e+00 -2.257752e-08
    outer loop
      vertex   -1.750000e+00 -1.000000e+01 3.750000e+00
      vertex   -3.850000e+00 -1.000000e+01 1.365000e+01
      vertex   -3.850000e+00 -1.000000e+01 3.750000e+00
    endloop
  endfacet
  facet normal -0.000000e+00 -1.000000e+00 -2.257752e-08
    outer loop
      vertex   -3.850000e+00 -1.000000e+01 3.750000e+00
      vertex   -3.850000e+00 -1.000000e+01 1.365000e+01
      vertex   -5.820000e+00 -1.000000e+01 3.750000e+00
    endloop
  endfacet
  facet normal -1.134606e-07 -1.000000e+00 9.868649e-17
    outer loop
      vertex   -5.820000e+00 -1.000000e+01 3.750000e+00
      vertex   -3.850000e+00 -1.000000e+01 1.365000e+01
      vertex   -5.820000e+00 -1.000000e+01 2.175000e+01
    endloop
  endfacet
  facet normal 3.720020e-08 -1.000000e+00 3.664220e-08
    outer loop
      vertex   -5.820000e+00 -1.000000e+01 2.175000e+01
      vertex   -3.850000e+00 -1.000000e+01 1.365000e+01
      vertex   -3.850000e+00 -1.000000e+01 1.975000e+01
    endloop
  endfacet
  facet normal 0.000000e+00 -1.000000e+00 8.881784e-16
    outer loop
      vertex   -5.820000e+00 -1.000000e+01 2.175000e+01
      vertex   -3.850000e+00 -1.000000e+01 1.975000e+01
      vertex   -1.750000e+00 -1.000000e+01 1.975000e+01
    endloop
  endfacet
  facet normal 0.000000e+00 -1.000000e+00 5.960464e-08
    outer loop
      vertex   -3.850000e+00 -1.000000e+01 -5.551115e-16
      vertex   -1.750000e+00 -1.000000e+01 -5.551115e-16
      vertex   -3.850000e+00 -1.000000e+01 3.750000e+00
    endloop
  endfacet
  facet normal 0.000000e+00 -1.000000e+00 5.960464e-08
    outer loop
      vertex   -3.850000e+00 -1.000000e+01 3.750000e+00
      vertex   -1.750000e+00 -1.000000e+01 -5.551115e-16
      vertex   -1.750000e+00 -1.000000e+01 3.750000e+00
    endloop
  endfacet
  facet normal 0.000000e+00 -1.000000e+00 0.000000e+00
    outer loop
      vertex   -3.850000e+00 -4.000000e+00 1.365000e+01
      vertex   -1.750000e+00 -4.000000e+00 1.365000e+01
      vertex   -3.850000e+00 -4.000000e+00 1.975000e+01
    endloop
  endfacet
  facet normal 0.000000e+00 -1.000000e+00 0.000000e+00
    outer loop
      vertex   -3.850000e+00 -4.000000e+00 1.975000e+01
      vertex   -1.750000e+00 -4.000000e+00 1.365000e+01
      vertex   -1.750000e+00 -4.000000e+00 1.975000e+01
    endloop
  endfacet
  facet normal 0.000000e+00 0.000000e+00 -1.000000e+00
    outer loop
      vertex   -3.850000e+00 -4.000000e+00 1.975000e+01
      vertex   -1.750000e+00 -4.000000e+00 1.975000e+01
      vertex   -3.850000e+00 -1.000000e+01 1.975000e+01
    endloop
  endfacet
  facet normal 0.000000e+00 0.000000e+00 -1.000000e+00
    outer loop
      vertex   -3.850000e+00 -1.000000e+01 1.975000e+01
      vertex   -1.750000e+00 -4.000000e+00 1.975000e+01
      vertex   -1.750000e+00 -1.000000e+01 1.975000e+01
    endloop
  endfacet
  facet normal -1.000000e+00 -0.000000e+00 -0.000000e+00
    outer loop
      vertex   -1.750000e+00 -4.000000e+00 1.975000e+01
      vertex   -1.750000e+00 -4.000000e+00 1.365000e+01
      vertex   -1.750000e+00 -1.000000e+01 1.975000e+01
    endloop
  endfacet
  facet normal -1.000000e+00 0.000000e+00 -0.000000e+00
    outer loop
      vertex   -1.750000e+00 -1.000000e+01 1.975000e+01
      vertex   -1.750000e+00 -4.000000e+00 1.365000e+01
      vertex   -1.750000e+00 -1.000000e+01 1.365000e+01
    endloop
  endfacet
  facet normal 0.000000e+00 0.000000e+00 1.000000e+00
    outer loop
      vertex   -1.750000e+00 -4.000000e+00 1.365000e+01
      vertex   -3.850000e+00 -4.000000e+00 1.365000e+01
      vertex   -1.750000e+00 -1.000000e+01 1.365000e+01
    endloop
  endfacet
  facet normal 0.000000e+00 0.000000e+00 1.000000e+00
    outer loop
      vertex   -1.750000e+00 -1.000000e+01 1.365000e+01
      vertex   -3.850000e+00 -4.000000e+00 1.365000e+01
      vertex   -3.850000e+00 -1.000000e+01 1.365000e+01
    endloop
  endfacet
  facet normal -1.000000e+00 -0.000000e+00 0.000000e+00
    outer loop
      vertex   -1.750000e+00 -1.000000e+01 3.750000e+00
      vertex   -1.750000e+00 -1.000000e+01 -5.551115e-16
      vertex   -1.750000e+00 -2.050000e+01 3.750000e+00
    endloop
  endfacet
  facet normal -1.000000e+00 0.000000e+00 0.000000e+00
    outer loop
      vertex   -1.750000e+00 -2.050000e+01 3.750000e+00
      vertex   -1.750000e+00 -1.000000e+01 -5.551115e-16
      vertex   -1.750000e+00 -2.050000e+01 -5.551115e-16
    endloop
  endfacet
  facet normal 1.000000e+00 0.000000e+00 0.000000e+00
    outer loop
      vertex   -3.850000e+00 -4.000000e+00 1.975000e+01
      vertex   -3.850000e+00 -1.000000e+01 1.975000e+01
      vertex   -3.850000e+00 -4.000000e+00 1.365000e+01
    endloop
  endfacet
  facet normal 1.000000e+00 0.000000e+00 0.000000e+00
    outer loop
      vertex   -3.850000e+00 -4.000000e+00 1.365000e+01
      vertex   -3.850000e+00 -1.000000e+01 1.975000e+01
      vertex   -3.850000e+00 -1.000000e+01 1.365000e+01
    endloop
  endfacet
  facet normal 1.000000e+00 4.229421e-17 1.184238e-16
    outer loop
      vertex   -3.850000e+00 -1.000000e+01 3.750000e+00
      vertex   -3.850000e+00 -2.050000e+01 3.750000e+00
      vertex   -3.850000e+00 -1.000000e+01 -5.551115e-16
    endloop
  endfacet
  facet normal 1.000000e+00 0.000000e+00 0.000000e+00
    outer loop
      vertex   -3.850000e+00 -1.000000e+01 -5.551115e-16
      vertex   -3.850000e+00 -2.050000e+01 3.750000e+00
      vertex   -3.850000e+00 -2.050000e+01 -5.551115e-16
    endloop
  endfacet
  facet normal -0.000000e+00 0.000000e+00 1.000000e+00
    outer loop
      vertex   -1.750000e+00 -1.000000e+01 3.750000e+00
      vertex   -1.750000e+00 -2.050000e+01 3.750000e+00
      vertex   2.600000e-01 -1.000000e+01 3.750000e+00
    endloop
  endfacet
  facet normal 0.000000e+00 0.000000e+00 1.000000e+00
    outer loop
      vertex   2.600000e-01 -1.000000e+01 3.750000e+00
      vertex   -1.750000e+00 -2.050000e+01 3.750000e+00
      vertex   -1.750000e+00 -3.530000e+01 3.750000e+00
    endloop
  endfacet
  facet normal 0.000000e+00 0.000000e+00 1.000000e+00
    outer loop
      vertex   2.600000e-01 -1.000000e+01 3.750000e+00
      vertex   -1.750000e+00 -3.530000e+01 3.750000e+00
      vertex   2.600000e-01 -4.775000e+01 3.750000e+00
    endloop
  endfacet
  facet normal 0.000000e+00 0.000000e+00 1.000000e+00
    outer loop
      vertex   2.600000e-01 -4.775000e+01 3.750000e+00
      vertex   -1.750000e+00 -3.530000e+01 3.750000e+00
      vertex   -1.750000e+00 -4.540000e+01 3.750000e+00
    endloop
  endfacet
  facet normal 0.000000e+00 0.000000e+00 1.000000e+00
    outer loop
      vertex   2.600000e-01 -4.775000e+01 3.750000e+00
      vertex   -1.750000e+00 -4.540000e+01 3.750000e+00
      vertex   -5.820000e+00 -4.775000e+01 3.750000e+00
    endloop
  endfacet
  facet normal 0.000000e+00 0.000000e+00 1.000000e+00
    outer loop
      vertex   -5.820000e+00 -4.775000e+01 3.750000e+00
      vertex   -1.750000e+00 -4.540000e+01 3.750000e+00
      vertex   -3.850000e+00 -4.540000e+01 3.750000e+00
    endloop
  endfacet
  facet normal 0.000000e+00 0.000000e+00 1.000000e+00
    outer loop
      vertex   -5.820000e+00 -4.775000e+01 3.750000e+00
      vertex   -3.850000e+00 -4.540000e+01 3.750000e+00
      vertex   -3.850000e+00 -3.530000e+01 3.750000e+00
    endloop
  endfacet
  facet normal 0.000000e+00 0.000000e+00 1.000000e+00
    outer loop
      vertex   -1.750000e+00 -2.050000e+01 3.750000e+00
      vertex   -3.850000e+00 -2.050000e+01 3.750000e+00
      vertex   -1.750000e+00 -3.530000e+01 3.750000e+00
    endloop
  endfacet
  facet normal 0.000000e+00 0.000000e+00 1.000000e+00
    outer loop
      vertex   -1.750000e+00 -3.530000e+01 3.750000e+00
      vertex   -3.850000e+00 -2.050000e+01 3.750000e+00
      vertex   -3.850000e+00 -3.530000e+01 3.750000e+00
    endloop
  endfacet
  facet normal 0.000000e+00 -0.000000e+00 1.000000e+00
    outer loop
      vertex   -3.850000e+00 -3.530000e+01 3.750000e+00
      vertex   -3.850000e+00 -2.050000e+01 3.750000e+00
      vertex   -5.820000e+00 -1.000000e+01 3.750000e+00
    endloop
  endfacet
  facet normal 0.000000e+00 0.000000e+00 1.000000e+00
    outer loop
      vertex   -3.850000e+00 -3.530000e+01 3.750000e+00
      vertex   -5.820000e+00 -1.000000e+01 3.750000e+00
      vertex   -5.820000e+00 -4.775000e+01 3.750000e+00
    endloop
  endfacet
  facet normal 0.000000e+00 0.000000e+00 1.000000e+00
    outer loop
      vertex   -3.850000e+00 -2.050000e+01 3.750000e+00
      vertex   -3.850000e+00 -1.000000e+01 3.750000e+00
      vertex   -5.820000e+00 -1.000000e+01 3.750000e+00
    endloop
  endfacet
  facet normal -0.000000e+00 1.000000e+00 0.000000e+00
    outer loop
      vertex   -3.850000e+00 -2.050000e+01 3.750000e+00
      vertex   -1.750000e+00 -2.050000e+01 3.750000e+00
      vertex   -3.850000e+00 -2.050000e+01 -5.551115e-16
    endloop
  endfacet
  facet normal 0.000000e+00 1.000000e+00 0.000000e+00
    outer loop
      vertex   -3.850000e+00 -2.050000e+01 -5.551115e-16
      vertex   -1.750000e+00 -2.050000e+01 3.750000e+00
      vertex   -1.750000e+00 -2.050000e+01 -5.551115e-16
    endloop
  endfacet
  facet normal -1.000000e+00 0.000000e+00 0.000000e+00
    outer loop
      vertex   -1.750000e+00 -4.540000e+01 3.750000e+00
      vertex   -1.750000e+00 -3.530000e+01 3.750000e+00
      vertex   -1.750000e+00 -4.540000e+01 -5.551115e-16
    endloop
  endfacet
  facet normal -1.000000e+00 0.000000e+00 0.000000e+00
    outer loop
      vertex   -1.750000e+00 -4.540000e+01 -5.551115e-16
      vertex   -1.750000e+00 -3.530000e+01 3.750000e+00
      vertex   -1.750000e+00 -3.530000e+01 -5.551115e-16
    endloop
  endfacet
  facet normal -0.000000e+00 -1.000000e+00 -0.000000e+00
    outer loop
      vertex   -1.750000e+00 -3.530000e+01 3.750000e+00
      vertex   -3.850000e+00 -3.530000e+01 3.750000e+00
      vertex   -1.750000e+00 -3.530000e+01 -5.551115e-16
    endloop
  endfacet
  facet normal 0.000000e+00 -1.000000e+00 0.000000e+00
    outer loop
      vertex   -1.750000e+00 -3.530000e+01 -5.551115e-16
      vertex   -3.850000e+00 -3.530000e+01 3.750000e+00
      vertex   -3.850000e+00 -3.530000e+01 -5.551115e-16
    endloop
  endfacet
  facet normal 1.000000e+00 0.000000e+00 0.000000e+00
    outer loop
      vertex   -3.850000e+00 -3.530000e+01 3.750000e+00
      vertex   -3.850000e+00 -4.540000e+01 3.750000e+00
      vertex   -3.850000e+00 -3.530000e+01 -5.551115e-16
    endloop
  endfacet
  facet normal 1.000000e+00 0.000000e+00 0.000000e+00
    outer loop
      vertex   -3.850000e+00 -3.530000e+01 -5.551115e-16
      vertex   -3.850000e+00 -4.540000e+01 3.750000e+00
      vertex   -3.850000e+00 -4.540000e+01 -5.551115e-16
    endloop
  endfacet
  facet normal -0.000000e+00 1.000000e+00 0.000000e+00
    outer loop
      vertex   -3.850000e+00 -4.540000e+01 3.750000e+00
      vertex   -1.750000e+00 -4.540000e+01 3.750000e+00
      vertex   -3.850000e+00 -4.540000e+01 -5.551115e-16
    endloop
  endfacet
  facet normal 0.000000e+00 1.000000e+00 0.000000e+00
    outer loop
      vertex   -3.850000e+00 -4.540000e+01 -5.551115e-16
      vertex   -1.750000e+00 -4.540000e+01 3.750000e+00
      vertex   -1.750000e+00 -4.540000e+01 -5.551115e-16
    endloop
  endfacet
  facet normal -0.000000e+00 -1.000000e+00 -0.000000e+00
    outer loop
      vertex   2.600000e-01 -4.775000e+01 3.750000e+00
      vertex   -5.820000e+00 -4.775000e+01 3.750000e+00
      vertex   2.600000e-01 -4.775000e+01 0.000000e+00
    endloop
  endfacet
  facet normal 0.000000e+00 -1.000000e+00 0.000000e+00
    outer loop
      vertex   2.600000e-01 -4.775000e+01 0.000000e+00
      vertex   -5.820000e+00 -4.775000e+01 3.750000e+00
      vertex   -5.820000e+00 -4.775000e+01 0.000000e+00
    endloop
  endfacet
endsolid
